<?xml version="1.0" standalone="no"?><!DOCTYPE svg PUBLIC "-//W3C//DTD SVG 1.1//EN" "http://www.w3.org/Graphics/SVG/1.1/DTD/svg11.dtd"><svg t="1753964082187" class="icon" viewBox="0 0 1024 1024" version="1.1" xmlns="http://www.w3.org/2000/svg" p-id="2950" xmlns:xlink="http://www.w3.org/1999/xlink" width="48" height="48"><path d="M522.77248 65.153024c-248.834048 0-450.56 201.725952-450.56 450.56s201.725952 450.56 450.56 450.56 450.56-201.725952 450.56-450.56S771.606528 65.153024 522.77248 65.153024zM522.595328 182.36928c32.238592 0 58.374144 26.134528 58.374144 58.374144s-26.134528 58.374144-58.374144 58.374144c-32.238592 0-58.37312-26.134528-58.37312-58.374144S490.356736 182.36928 522.595328 182.36928zM581.144576 792.301568c0 31.34464-25.41056 56.756224-56.757248 56.756224s-56.757248-25.41056-56.757248-56.756224c0-1.429504 0.070656-2.8416 0.17408-4.24448L467.80416 402.233344l0.00512 0c0-0.024576-0.002048-0.050176-0.002048-0.074752 0-31.346688 25.41056-56.758272 56.757248-56.758272s56.757248 25.41056 56.757248 56.758272c0 2.121728-0.125952 4.212736-0.35328 6.275072l0 379.618304C581.072896 789.455872 581.144576 790.870016 581.144576 792.301568z" fill="#1296db" p-id="2951"></path></svg>