<?xml version="1.0" standalone="no"?><!DOCTYPE svg PUBLIC "-//W3C//DTD SVG 1.1//EN" "http://www.w3.org/Graphics/SVG/1.1/DTD/svg11.dtd"><svg t="1755330447500" class="icon" viewBox="0 0 1024 1024" version="1.1" xmlns="http://www.w3.org/2000/svg" p-id="3033" xmlns:xlink="http://www.w3.org/1999/xlink" width="48" height="48"><path d="M760.490667 102.4H195.413333C162.986667 102.4 136.533333 129.706667 136.533333 163.157333v697.856C136.533333 894.293333 162.986667 921.6 195.413333 921.6h438.442667c-94.208-57.685333-141.312-194.218667-79.530667-297.301333 14.677333-24.234667 32.426667-51.541333 55.978667-66.730667 64.682667-42.496 144.213333-54.613333 208.896-30.378667V163.157333C819.370667 129.706667 792.917333 102.4 760.490667 102.4zM392.533333 615.082667h-138.24c-17.578667 0-32.426667-15.189333-32.426666-33.450667 0-18.261333 14.677333-33.450667 32.426666-33.450667h135.338667c17.578667 0 32.426667 15.189333 32.426667 33.450667 0 18.432-11.776 33.450667-29.525334 33.450667z m303.104-163.84H248.32c-17.578667 0-32.426667-15.189333-32.426667-33.450667 0-18.261333 14.677333-33.450667 32.426667-33.450667h447.317333c17.578667 0 32.426667 15.189333 32.426667 33.450667-2.901333 18.432-14.677333 33.450667-32.426667 33.450667z m0-163.84H248.32c-17.578667 0-32.426667-15.189333-32.426667-33.450667s14.677333-33.450667 32.426667-33.450667h447.317333c17.578667 0 32.426667 15.189333 32.426667 33.450667s-14.677333 33.450667-32.426667 33.450667z" fill="#F89730" p-id="3034"></path><path d="M910.506667 866.986667l-44.202667-45.568c29.354667-48.469333 38.229333-115.370667 0-175.957334-11.776-18.261333-29.354667-33.450667-44.202667-42.496-144.213333-88.064-297.301333 75.776-205.994666 224.597334 8.874667 15.189333 35.328 36.352 50.005333 48.469333 52.906667 30.378667 114.858667 21.162667 158.890667-9.045333l44.202666 45.568c5.973333 5.973333 14.848 9.045333 20.821334 9.045333 5.802667 0 14.677333-3.072 20.650666-9.045333 14.677333-15.189333 14.677333-33.450667-0.170666-45.568z m-170.666667-45.568c-50.005333 0-88.234667-39.424-88.234667-90.965334s38.229333-90.965333 88.234667-90.965333 88.234667 39.424 88.234667 90.965333-38.229333 90.965333-88.234667 90.965334z" fill="#F89730" p-id="3035"></path></svg>