<?xml version="1.0" standalone="no"?><!DOCTYPE svg PUBLIC "-//W3C//DTD SVG 1.1//EN" "http://www.w3.org/Graphics/SVG/1.1/DTD/svg11.dtd"><svg t="1758618263699" class="icon" viewBox="0 0 1024 1024" version="1.1" xmlns="http://www.w3.org/2000/svg" p-id="3475" xmlns:xlink="http://www.w3.org/1999/xlink" width="48" height="48"><path d="M898.603659 331.823628c0-45.905364-37.268837-83.174202-83.166264-83.174202H330.220155c-45.897426 0-83.158326 37.268837-83.158326 83.174202v483.391504c0 45.897426 37.260899 83.158326 83.158326 83.158325h485.21724c45.897426 0 83.166264-37.260899 83.166264-83.158325V331.823628z" fill="#FFCB01" p-id="3476"></path><path d="M435.493705 358.503194H234.972279a31.101023 31.101023 0 0 1-31.077209-31.07721 31.108961 31.108961 0 0 1 31.077209-31.085147h200.521426a31.108961 31.108961 0 0 1 31.085148 31.085147 31.101023 31.101023 0 0 1-31.085148 31.07721z m345.723039 236.26617H580.750884a31.116899 31.116899 0 0 1-31.085148-31.085147 31.108961 31.108961 0 0 1 31.085148-31.077209h200.46586a31.108961 31.108961 0 0 1 31.085147 31.077209 31.108961 31.108961 0 0 1-31.085147 31.085147z" p-id="3477"></path><path d="M930.355597 225.383194c0-72.045147-58.495008-130.540155-130.540155-130.540155h-576.377054c-72.053085 0-130.548093 58.495008-130.548093 130.540155v574.217922c0 72.045147 58.495008 130.540155 130.540155 130.540155h576.377054c72.053085 0 130.548093-58.495008 130.548093-130.540155V225.383194z m-63.503876 0v574.217922a67.068031 67.068031 0 0 1-67.036279 67.036279h-576.377054c-37.006884 0-67.052155-30.037333-67.052155-67.036279V225.383194c0-37.006884 30.045271-67.044217 67.044217-67.044217h576.377054c37.006884 0 67.044217 30.037333 67.044217 67.044217z" p-id="3478"></path><path d="M781.216744 323.329984h-69.147783V254.174264a31.108961 31.108961 0 0 0-31.085147-31.07721 31.101023 31.101023 0 0 0-31.077209 31.07721v69.15572H580.742946a31.108961 31.108961 0 0 0-31.085148 31.07721 31.101023 31.101023 0 0 0 31.085148 31.085147h69.155721v69.155721a31.101023 31.101023 0 0 0 31.077209 31.077209 31.101023 31.101023 0 0 0 31.085147-31.077209v-69.155721h69.147783a31.101023 31.101023 0 0 0 31.085147-31.085147 31.101023 31.101023 0 0 0-31.085147-31.07721z m-348.31876 227.613768a31.132775 31.132775 0 0 0-43.976434 0l-59.003038 59.003039-58.947473-59.003039a31.140713 31.140713 0 0 0-43.976434 0 31.140713 31.140713 0 0 0 0 43.976434l59.003038 59.010977-58.947472 58.947473a31.140713 31.140713 0 0 0 0 43.976434 31.037519 31.037519 0 0 0 43.920868 0l59.003039-58.995101 59.003038 59.003039a31.053395 31.053395 0 0 0 43.928806 0 31.140713 31.140713 0 0 0 0-43.984372l-59.003038-59.003039 59.003038-59.003039a30.981953 30.981953 0 0 0 0-43.928806z" fill="#303135" p-id="3479"></path><path d="M781.216744 754.370481H580.750884a31.108961 31.108961 0 0 1-31.085148-31.07721 31.101023 31.101023 0 0 1 31.085148-31.077209h200.46586a31.101023 31.101023 0 0 1 31.085147 31.077209 31.108961 31.108961 0 0 1-31.085147 31.07721z" p-id="3480"></path></svg>