<?xml version="1.0" standalone="no"?><!DOCTYPE svg PUBLIC "-//W3C//DTD SVG 1.1//EN" "http://www.w3.org/Graphics/SVG/1.1/DTD/svg11.dtd"><svg t="1754039710861" class="icon" viewBox="0 0 1024 1024" version="1.1" xmlns="http://www.w3.org/2000/svg" p-id="4191" xmlns:xlink="http://www.w3.org/1999/xlink" width="48" height="48"><path d="M65.536 194.218667h132.778667v113.664H65.536zM869.376 295.936H471.722667a19.114667 19.114667 0 0 1-18.773334-22.869333L477.866667 131.072a19.114667 19.114667 0 0 1 18.773333-16.042667h348.842667a18.773333 18.773333 0 0 1 18.773333 16.042667L887.466667 273.066667a18.773333 18.773333 0 0 1-18.090667 22.869333z" fill="#383838" p-id="4192"></path><path d="M0 236.202667m51.2 0l921.941333 0q51.2 0 51.2 51.2l0 570.368q0 51.2-51.2 51.2l-921.941333 0q-51.2 0-51.2-51.2l0-570.368q0-51.2 51.2-51.2Z" fill="#1D1E1D" p-id="4193"></path><path d="M0 446.805333h1024.341333v283.306667H0z" fill="#383838" p-id="4194"></path><path d="M1024.341333 730.112V447.146667H740.693333l283.648 282.965333z" fill="#383838" p-id="4195"></path><path d="M1024 857.770667v-127.658667H463.189333a12.970667 12.970667 0 0 0-9.557333 4.096l-23.552 23.552a12.970667 12.970667 0 0 0 0 18.432l129.024 129.024a13.312 13.312 0 0 0 9.216 3.754667h404.821333a51.2 51.2 0 0 0 50.858667-51.2z" fill="#050101" p-id="4196"></path><path d="M1024 730.112l-283.306667-282.965333-283.306666 282.965333H1024z" fill="#2B2B2B" p-id="4197"></path><path d="M257.706667 588.458667a274.432 274.090667 0 1 0 548.864 0 274.432 274.090667 0 1 0-548.864 0Z" fill="#C4C4C4" p-id="4198"></path><path d="M321.536 588.458667a210.602667 210.602667 0 1 0 421.205333 0 210.602667 210.602667 0 1 0-421.205333 0Z" fill="#686969" p-id="4199"></path><path d="M600.064 156.672m24.576 0l91.818667 0q24.576 0 24.576 24.576l0-0.341333q0 24.576-24.576 24.576l-91.818667 0q-24.576 0-24.576-24.576l0 0.341333q0-24.576 24.576-24.576Z" fill="#FFFFFF" p-id="4200"></path><path d="M48.128 285.354667m46.421333 0l74.752 0q46.421333 0 46.421334 46.421333l0 0q0 46.421333-46.421334 46.421333l-74.752 0q-46.421333 0-46.421333-46.421333l0 0q0-46.421333 46.421333-46.421333Z" fill="#FFFFFF" p-id="4201"></path></svg>