<?xml version="1.0" standalone="no"?><!DOCTYPE svg PUBLIC "-//W3C//DTD SVG 1.1//EN" "http://www.w3.org/Graphics/SVG/1.1/DTD/svg11.dtd"><svg t="1755330442847" class="icon" viewBox="0 0 1102 1024" version="1.1" xmlns="http://www.w3.org/2000/svg" p-id="2867" xmlns:xlink="http://www.w3.org/1999/xlink" width="51.65625" height="48"><path d="M1047.250275 560.461439L554.284281 95.699967 54.573727 552.490596l-40.467358-41.0805L554.897423 14.152109l533.433352 505.22883z" fill="#2588C4" p-id="2868"></path><path d="M1047.250275 573.950558a15.328545 15.328545 0 0 1-9.197126-3.065709l-484.38201-456.790629-489.900285 449.432928a14.102261 14.102261 0 0 1-19.007396-1.226284L3.682959 520.607223a14.102261 14.102261 0 0 1-3.678851-9.810268 11.649694 11.649694 0 0 1 4.905135-9.810269L545.700296 3.115557a14.102261 14.102261 0 0 1 18.394254 0.613142L1097.527902 508.957529a12.875977 12.875977 0 0 1 4.905134 9.810269 13.489119 13.489119 0 0 1-4.291993 10.42341l-41.080499 41.0805a15.328545 15.328545 0 0 1-9.810269 3.67885zM554.284281 82.210847a14.715403 14.715403 0 0 1 8.583985 3.065709l483.768868 456.177488 21.459962-21.459963L554.284281 32.546363 34.340048 512.023238 55.186869 534.096342l489.900285-448.819786a15.328545 15.328545 0 0 1 9.197127-3.065709z" fill="#2588C4" p-id="2869"></path><path d="M553.057997 228.138592l-422.454689 380.147906-2.452567 394.863309 838.777961 7.357701 3.065709-394.863308-416.936414-387.505608z" fill="#2588C4" p-id="2870"></path><path d="M966.928702 1023.996628l-839.391103-7.357702a13.489119 13.489119 0 0 1-13.489119-14.102261l2.452567-394.250167a14.102261 14.102261 0 0 1 5.518276-11.036552l421.841548-380.147906a14.715403 14.715403 0 0 1 18.394253 0l416.936413 388.118749a13.489119 13.489119 0 0 1 4.291993 10.423411l-2.452567 394.863308a14.715403 14.715403 0 0 1-4.291993 9.810269 14.102261 14.102261 0 0 1-9.810268 3.678851z m-825.288842-34.949082l811.799722 7.357701 2.452568-374.62963-402.834153-375.855913-408.965569 368.498212z" fill="#2588C4" p-id="2871"></path><path d="M689.788615 676.958378v41.693641H586.167654v51.50391h103.620961v41.693641H586.167654v93.810693H507.685505v-93.810693h-104.234103v-41.693641h104.234103v-51.50391H405.290827v-41.693641H484.386118L389.349141 493.628985h88.292417l69.898163 153.898587 72.350731-152.672304h88.905559l-98.102686 181.489968 79.09529 0.613142z" fill="#C7E2F3" p-id="2872"></path><path d="M586.167654 917.923099H507.685505a12.262836 12.262836 0 0 1-12.875977-12.262836v-80.934715H403.451402a12.875977 12.875977 0 0 1-12.262836-12.875978v-41.693641a12.262836 12.262836 0 0 1 12.262836-12.262836h91.358126v-26.978238H405.290827a12.262836 12.262836 0 0 1-12.875977-12.262836v-41.693641a12.262836 12.262836 0 0 1 12.875977-12.262836h58.861612l-85.83985-164.93514a11.036552 11.036552 0 0 1 0-12.262835 12.875977 12.875977 0 0 1 11.036552-6.131418h88.292417a12.875977 12.875977 0 0 1 11.649694 7.357701l58.861611 128.759775 60.701037-128.146633a12.262836 12.262836 0 0 1 11.036552-7.357701h88.905559a12.875977 12.875977 0 0 1 10.42341 6.131417 11.036552 11.036552 0 0 1 0 12.262836L631.540146 664.082401h58.861611a12.262836 12.262836 0 0 1 12.262836 12.262835v41.693642a12.262836 12.262836 0 0 1-12.875978 12.262835H598.430489v26.978239h91.358126a12.262836 12.262836 0 0 1 12.875978 12.262835v41.693642a12.875977 12.875977 0 0 1-12.875978 12.875977H598.430489v80.934716a12.262836 12.262836 0 0 1-12.262835 12.875977z m-66.219313-24.525671h53.956477v-81.547858a12.262836 12.262836 0 0 1 12.262836-12.262835h91.358126v-16.554828H586.167654a12.262836 12.262836 0 0 1-12.262836-12.875978v-51.50391a12.875977 12.875977 0 0 1 12.262836-12.875977h91.358126v-16.554828H610.693325a12.875977 12.875977 0 0 1-11.036552-6.131418 12.262836 12.262836 0 0 1 0-12.262836l88.292417-163.095714h-60.087895l-68.67188 144.701461a13.489119 13.489119 0 0 1-11.649694 7.357701 12.262836 12.262836 0 0 1-11.036552-7.357701L469.670715 506.504962h-60.087895l85.83985 164.93514a12.875977 12.875977 0 0 1-0.613142 12.262836 11.649694 11.649694 0 0 1-10.42341 5.518276H417.553663v16.554828h90.131842a12.875977 12.875977 0 0 1 12.262836 12.875977v51.50391a12.262836 12.262836 0 0 1-12.262836 12.875978H416.32738v16.554828h91.358125a12.262836 12.262836 0 0 1 12.262836 12.262835z" fill="#C7E2F3" p-id="2873"></path></svg>