<?xml version="1.0" standalone="no"?><!DOCTYPE svg PUBLIC "-//W3C//DTD SVG 1.1//EN" "http://www.w3.org/Graphics/SVG/1.1/DTD/svg11.dtd"><svg t="1754040346523" class="icon" viewBox="0 0 1024 1024" version="1.1" xmlns="http://www.w3.org/2000/svg" p-id="2560" xmlns:xlink="http://www.w3.org/1999/xlink" width="48" height="48"><path d="M732.575365 38.799857c52.179119 0 94.871125 40.016154 94.871125 88.911273v770.888704c0 48.895118-42.692006 88.911272-94.871125 88.911272H289.843449c-52.179119 0-94.871125-40.016154-94.871124-88.911272V127.71113c0-48.895118 42.692006-88.911272 94.871124-88.911273h442.731916z" fill="#151515" p-id="2561"></path><path d="M421.811617 78.329493c-8.878964 0-16.055113 8.878964-16.055114 19.704003 0 10.946668 7.176149 19.704003 16.055114 19.704003h178.795581c8.878964 0 16.055113-8.878964 16.055113-19.704003 0-10.946668-7.176149-19.704003-16.055113-19.704003h-178.795581zM511.209407 947.98147c34.907709 0 63.247417-26.515263 63.247417-59.233638 0-32.840005-28.339708-59.233638-63.247417-59.233638s-63.247417 26.515263-63.247416 59.233638 28.339708 59.233638 63.247416 59.233638z" fill="#FFFFFF" p-id="2562"></path><path d="M276.707447 157.388764h474.355625v592.94453h-474.355625z" fill="#3F9FDA" p-id="2563"></path><path d="M751.063072 750.333294h-474.355625l267.098706-325.724196 207.256919-267.220334z" fill="#FFFFFF" opacity=".1" p-id="2564"></path></svg>