<?xml version="1.0" standalone="no"?><!DOCTYPE svg PUBLIC "-//W3C//DTD SVG 1.1//EN" "http://www.w3.org/Graphics/SVG/1.1/DTD/svg11.dtd"><svg t="1754043866309" class="icon" viewBox="0 0 1097 1024" version="1.1" xmlns="http://www.w3.org/2000/svg" p-id="2608" xmlns:xlink="http://www.w3.org/1999/xlink" width="51.421875" height="48"><path d="M1067.502241 964.027258h-32.500952l-73.74007-247.308982a209.464547 209.464547 0 0 0-106.555344-126.546258 165.647983 165.647983 0 0 0 42.559273-103.537848c5.532077-121.957149-63.304561-290.371171-160.241635-391.771625C677.74228 32.815274 612.614648 0 548.429983 0S419.620603 32.815274 360.087912 95.051139C263.150838 196.451593 194.3142 364.865615 199.846277 486.822764a165.585119 165.585119 0 0 0 42.496408 103.537847 209.590276 209.590276 0 0 0-106.492479 126.546259L62.110136 964.215851H29.609184a29.923507 29.923507 0 0 0 0 59.784149h1037.893057a29.923507 29.923507 0 0 0 0-59.784149zM403.527288 136.164528c33.31819-34.826938 85.558598-76.380379 145.154153-76.380379s111.835963 41.553441 145.091289 76.380379c85.432869 89.393333 148.548837 242.091227 143.771134 347.766468a102.091964 102.091964 0 0 1-5.972128 29.860643c-16.910553-40.736202-80.466573-87.381669-282.890295-87.381669s-265.979741 46.645466-282.890294 87.381669a98.1315 98.1315 0 0 1-5.972128-29.860643c-4.840567-105.675241 58.275401-258.373135 143.708269-347.766468z m454.887593 827.86273v-195.634355a25.145804 25.145804 0 0 0-25.145804-25.145804H263.842348a25.145804 25.145804 0 0 0-25.145804 25.145804v195.634355H124.723187l68.648045-230.209835a149.680398 149.680398 0 0 1 100.583216-99.891706c99.263061 65.693413 243.159924 80.466573 252.212413 81.283811h5.657806c9.052489-0.817239 152.949352-15.590398 252.212413-81.346676a149.99472 149.99472 0 0 1 100.268893 99.954571l68.648045 230.209835z" fill="#2D3640" p-id="2609"></path></svg>