<?xml version="1.0" standalone="no"?><!DOCTYPE svg PUBLIC "-//W3C//DTD SVG 1.1//EN" "http://www.w3.org/Graphics/SVG/1.1/DTD/svg11.dtd"><svg t="1753964123477" class="icon" viewBox="0 0 1024 1024" version="1.1" xmlns="http://www.w3.org/2000/svg" p-id="4960" xmlns:xlink="http://www.w3.org/1999/xlink" width="48" height="48"><path d="M168.99913955 836.77376158h659.48957709c18.36518295 0 27.47873238 9.11354943 27.47873239 27.47873238V891.73122634c0 18.36518295-9.11354943 27.47873238-27.47873239 27.47873238H168.99913955c-18.36518295 0-27.47873238-9.11354943-27.47873237-27.47873238v-27.47873238c0-18.22709886 9.25163351-27.47873238 27.47873237-27.47873238z m0 0" fill="#3CA3A9" p-id="4961"></path><path d="M718.57378713 177.42226859h27.47873237c15.18924905 0 27.47873238 12.28948332 27.47873238 27.47873236v110.74343402l-82.43619713-82.98853348v-27.89298462c0-15.05116498 12.28948332-27.3406483 27.47873238-27.34064828zM251.43533669 561.98643779h27.47873238V630.75231078h-54.95746477v-41.4252247c0-15.18924905 12.28948332-27.47873238 27.47873239-27.47873236v0.13808407z m233.63826726-219.2775227c-26.51214381 5.66144737-47.08667206 26.37405971-52.88620352 52.88620352h52.88620352v-52.88620352z m-52.88620352 81.05535632c5.66144737 26.51214381 26.37405971 47.22475615 52.88620352 52.88620352v-52.88620352h-52.88620352z m81.05535632 52.88620352c26.51214381-5.66144737 47.22475615-26.37405971 52.88620352-52.88620352h-52.88620352v52.88620352z m52.88620352-81.05535632c-5.66144737-26.51214381-26.37405971-47.22475615-52.88620352-52.88620352v52.88620352h52.88620352zM306.39280145 561.98643779h28.0310687c14.91308089 0.27616816 26.92639605 12.42756741 26.92639606 27.34064829v41.14905653h-54.95746476V561.71026963v0.27616816z m54.95746476 96.24460538v41.14905653c0 14.91308089-12.01331517 27.20256421-26.92639606 27.47873236h-28.0310687v-68.62778889h54.95746476z m-82.43619714 68.62778889h-27.47873238c-15.18924905 0-27.47873238-12.28948332-27.47873239-27.47873236v-41.14905653h54.95746477v68.62778889z m384.7022533-164.87239427h27.47873238V630.75231078h-54.95746477v-41.4252247c0-15.18924905 12.28948332-27.47873238 27.47873239-27.47873236v0.13808407z m54.95746476 0h27.47873237c15.05116498 0 27.3406483 12.15139925 27.47873238 27.34064829v41.14905653h-54.95746475V561.71026963v0.27616816z m54.95746475 96.24460538v41.14905653c-0.13808409 15.18924905-12.28948332 27.3406483-27.47873238 27.47873236h-27.47873237v-68.62778889h54.95746475z m-82.43619713 68.62778889h-27.47873238c-15.18924905-0.13808409-27.3406483-12.28948332-27.47873239-27.47873236v-41.14905653h54.95746477v68.62778889zM581.04204115 616.94390255v192.35112664h246.618171V564.74811943c-2.62359757-1.93317715-5.24719513-4.14252247-7.59462453-6.48995186L498.7439281 233.62249008l-322.84058443 324.49759341c-2.3474294 2.3474294-4.83294288 4.55677472-7.45654044 6.48995187v244.68499383h246.61817099V616.94390255c0-45.56774717 36.86844997-82.43619714 82.43619714-82.43619713s82.43619714 36.86844997 82.43619714 82.43619713h1.10467265z m0 0" fill="#D84D32" p-id="4962"></path><path d="M98.71434166 480.7929974c-16.01775355 16.15583763-15.87966947 42.1156451 0.13808409 58.13339865 16.15583763 16.01775355 42.1156451 15.87966947 58.13339864-0.13808408L498.7439281 194.4066107l341.75810371 344.38170127c16.29392172 13.39415599 40.18246795 12.15139925 55.09554883-2.76168166 14.91308089-15.05116498 16.01775355-38.80162713 2.48551349-55.09554883L528.15583763 107.27555476c-7.7327086-7.7327086-18.22709886-12.15139925-29.13574136-12.15139923-10.90864251 0-21.40303275 4.41869063-29.13574137 12.15139923L98.71434166 480.7929974z m0 0" fill="#3CA3A9" p-id="4963"></path><path d="M443.78646335 809.29502919h109.91492951V616.94390255c0-30.3784981-24.57896666-54.95746475-54.95746476-54.95746476-30.3784981 0-54.95746475 24.57896666-54.95746475 54.95746476v192.35112664z m0 0" fill="#3CA3A9" p-id="4964"></path></svg>