<?xml version="1.0" standalone="no"?><!DOCTYPE svg PUBLIC "-//W3C//DTD SVG 1.1//EN" "http://www.w3.org/Graphics/SVG/1.1/DTD/svg11.dtd"><svg t="1755005158729" class="icon" viewBox="0 0 1024 1024" version="1.1" xmlns="http://www.w3.org/2000/svg" p-id="2709" xmlns:xlink="http://www.w3.org/1999/xlink" width="48" height="48"><path d="M566.3744 637.0816l79.0528-240.64 4.096-10.24c2.8672-7.3728 5.888-14.6432 9.0112-21.9136l-3.4816 2.8672c-52.48-64.4608-144.5376-107.52-229.0176-107.52-9.1648 0-18.0224-0.256-26.5728-0.5632-37.6832-1.1776-67.4816-2.1504-88.576 21.4016-5.12 5.7856-4.7104 13.2608-3.2768 27.0336 1.792 17.7152 4.3008 41.984-16.896 64.1536-17.7664 18.6368-40.96 13.3632-59.2896 9.1136-17.3568-3.9936-28.4672-6.0416-37.2736 1.3312-36.4544 30.3616-40.96 90.4704-40.96 139.4688 0 144.384 122.4704 261.888 272.9984 261.888a281.6 281.6 0 0 0 99.7888-18.1248 39.8848 39.8848 0 0 1 2.4064-10.5472 64.768 64.768 0 0 1 25.2416-32.0512l14.7968-47.7184a52.736 52.736 0 0 1-2.048-37.9392z m-372.992-103.1168a44.2368 44.2368 0 0 1 62.0032-53.2992 43.8784 43.8784 0 0 1 22.0672 25.6 44.2368 44.2368 0 1 1-84.0704 27.5968zM332.8 652.1856a44.3392 44.3392 0 1 1 2.5088-33.7408 44.2368 44.2368 0 0 1-2.5088 33.7408z m109.824 78.7456a44.1856 44.1856 0 0 1-25.6 22.1184 44.6464 44.6464 0 0 1-13.8752 2.2016 44.288 44.288 0 1 1 39.5264-24.32z m36.352-354.5088a44.2368 44.2368 0 1 1 44.2368-44.2368 44.288 44.288 0 0 1-44.288 44.2368z" fill="#F29BF9" p-id="2710"></path><path d="M426.0352 228.9152c-8.6528 0-17.2544-0.256-25.6-0.512-42.0864-1.3824-81.92-2.6112-112.64 31.5392-14.4896 16.1792-12.544 35.328-10.9568 50.688 1.792 17.3056 2.304 28.4672-8.5504 39.8336-5.12 5.4272-13.1584 4.3008-30.208 0.3584-17.92-4.1472-42.6496-9.8304-63.5904 7.5776-46.08 38.5536-52.1728 107.52-52.1728 163.072 0 161.4336 136.2432 292.608 303.7184 292.608a312.32 312.32 0 0 0 104.1408-17.7152 114.8416 114.8416 0 0 1-3.6352-15.0016 58.6752 58.6752 0 0 1-0.7168-16.128A281.6 281.6 0 0 1 426.0352 783.36c-150.528 0-272.9984-117.76-272.9984-261.888 0-48.9984 4.6592-109.1072 40.96-139.4688 8.8064-7.3728 19.9168-5.12 37.2736-1.3312 18.4832 4.2496 41.5232 9.5232 59.2896-9.1136 21.1968-22.1696 18.688-46.4384 16.896-64.1536-1.4336-13.7728-1.8944-21.248 3.2768-27.0336 21.0944-23.552 50.8928-22.5792 88.576-21.4016 8.5504 0.3072 17.408 0.5632 26.5728 0.5632 84.48 0 176.5376 43.0592 229.0176 107.1616l3.4816-2.8672c1.5872-3.6352 3.1744-7.3216 4.8128-10.9568 2.304-5.12 4.6592-10.24 7.1168-15.36-58.88-65.2288-155.3408-108.5952-244.2752-108.5952z" p-id="2711"></path><path d="M241.5104 508.1088a13.3632 13.3632 0 0 0-10.24-0.8192 13.568 13.568 0 1 0 17.0496 8.6528 13.312 13.312 0 0 0-6.8096-7.8336zM306.0736 628.0192a13.5168 13.5168 0 0 0-17.0496-8.4992 13.5168 13.5168 0 0 0-8.6528 17.1008 13.312 13.312 0 0 0 6.7584 7.8336 13.5168 13.5168 0 0 0 18.944-16.2816zM415.9488 706.56a13.5168 13.5168 0 0 0-6.7584-7.8848 13.5168 13.5168 0 1 0-1.8944 24.9856 13.7216 13.7216 0 0 0 7.8848-6.7584 13.4656 13.4656 0 0 0 0.768-10.24zM478.9248 318.6688a13.5168 13.5168 0 1 0 13.5168 13.5168 13.568 13.568 0 0 0-13.5168-13.5168z" fill="#F29BF9" p-id="2712"></path><path d="M277.4528 506.368a44.2368 44.2368 0 0 0-55.8592-28.2624 44.288 44.288 0 1 0 55.8592 28.2624z m-37.7856 26.6752a13.568 13.568 0 1 1-8.448-25.6 13.6192 13.6192 0 0 1 17.0496 8.6528 13.568 13.568 0 0 1-8.6016 16.9472zM313.1904 592.7424a44.2368 44.2368 0 1 0-20.0192 83.7632 44.1856 44.1856 0 0 0 39.6288-24.32 44.3392 44.3392 0 0 0-19.5584-59.4432zM297.472 645.12a13.4656 13.4656 0 0 1-10.24-0.8192 13.312 13.312 0 0 1-6.7584-7.8336 13.5168 13.5168 0 0 1 8.5504-16.9472 13.6192 13.6192 0 0 1 17.0496 8.6528A13.568 13.568 0 0 1 297.472 645.12zM423.0656 671.488a44.2368 44.2368 0 1 0-20.0192 83.7632 44.6464 44.6464 0 0 0 13.8752-2.2016 44.288 44.288 0 0 0 6.144-81.5616z m-15.7696 52.3776a13.5168 13.5168 0 1 1 1.8944-24.9856 13.5168 13.5168 0 0 1 6.7584 7.68 13.4656 13.4656 0 0 1-0.768 10.24 13.7216 13.7216 0 0 1-7.8848 7.0656zM478.9248 287.9488a44.2368 44.2368 0 1 0 44.2368 44.2368 44.288 44.288 0 0 0-44.2368-44.2368z m0 57.7536a13.5168 13.5168 0 1 1 13.5168-13.5168 13.568 13.568 0 0 1-13.5168 13.5168z" p-id="2713"></path><path d="M606.8736 672.6656l55.5008 21.5552a20.48 20.48 0 0 0 25.9072-11.52l9.7792-21.7088-95.0272-36.9664-7.4752 22.6304a20.48 20.48 0 0 0 11.3152 26.0096zM792.064 452.864l3.9424-10.24a645.12 645.12 0 0 0 41.984-282.4192 646.6048 646.6048 0 0 0-159.8464 236.7488l-3.9424 10.24-61.44 187.6992 98.1504 38.144z" fill="#FF00FF" p-id="2714"></path><path d="M867.2768 142.8992a23.5008 23.5008 0 0 0-39.2704-15.36l-1.792 1.6384A675.84 675.84 0 0 0 670.72 337.92c-2.4576 5.12-4.8128 10.24-7.1168 15.36-1.6384 3.6352-3.2256 7.3216-4.8128 10.9568-3.1232 7.2704-6.144 14.5408-9.0112 21.9136l-4.096 10.24-79.0528 240.64a52.736 52.736 0 0 0 1.8944 37.9392 49.8176 49.8176 0 0 0 27.4944 26.2656l55.5008 21.6064a49.7664 49.7664 0 0 0 17.92 3.328 52.0192 52.0192 0 0 0 47.104-30.72l103.936-230.4 4.4032-11.4176a675.84 675.84 0 0 0 42.3936-310.7328z m-204.8 551.3216l-55.5008-21.5552a20.48 20.48 0 0 1-11.3152-26.0096l7.4752-22.6304 95.0272 36.9664-9.7792 21.7088a20.48 20.48 0 0 1-26.0096 11.52z m129.5872-241.3568l-81.3056 180.0704-98.1504-38.144 61.44-187.6992 3.9424-10.24a646.6048 646.6048 0 0 1 159.8464-236.7488 645.12 645.12 0 0 1-41.984 282.4192z" p-id="2715"></path><path d="M562.8928 853.6576c5.12-1.8944 9.4208-3.5328 12.3392-4.5568 19.968-6.9632 46.08-26.8288 53.2992-45.2096 8.8576-22.8352-0.9216-48.0256-21.8112-56.32a52.8384 52.8384 0 0 0-19.2-3.8912 35.84 35.84 0 0 0-11.4176 1.792 32.1024 32.1024 0 0 0-19.2512 20.48c-2.304 5.9392 1.7408 18.7904 4.4544 27.2896 0.8192 2.56 1.5872 5.12 2.2528 7.2704 3.4816 12.2368 0.8704 26.0608-7.7824 40.96-0.6144 1.0752-1.9968 3.2768-3.7888 6.144-3.072 4.8128-5.7344 9.1136-8.0896 13.0048 7.2192-2.5088 14.1824-5.2224 18.9952-6.9632z" fill="#FF00FF" p-id="2716"></path><path d="M617.8816 719.1552a74.752 74.752 0 0 0-51.8144-2.5088 57.2928 57.2928 0 0 0-12.5952 6.0928 64.768 64.768 0 0 0-25.2416 32.0512 39.8848 39.8848 0 0 0-2.4064 10.5472 58.6752 58.6752 0 0 0 0.7168 16.128 114.8416 114.8416 0 0 0 3.6352 15.0016c0.6144 2.0992 1.28 4.096 1.8432 6.0416s1.4336 4.4032 1.9968 6.4c1.0752 3.84-0.6144 9.984-5.12 17.3568l-3.1232 5.12c-21.76 34.304-26.5216 45.7216-23.2448 55.7056a16.896 16.896 0 0 0 9.9328 10.5472 18.688 18.688 0 0 0 7.0656 1.28c8.4992 0 22.1696-4.4032 53.9648-16.384 4.8128-1.8432 8.8576-3.3792 11.6224-4.352 26.5216-9.216 60.7232-34.5088 71.68-63.0784 15.4112-38.7072-2.2528-81.7152-38.912-95.9488z m10.6496 84.6848c-7.1168 18.3808-33.3312 38.2464-53.2992 45.2096-2.9184 1.024-7.2192 2.6624-12.3392 4.5568s-11.776 4.4544-18.9952 7.0656c2.3552-3.8912 5.12-8.192 8.0896-13.0048 1.792-2.8672 3.1744-5.12 3.7888-6.144 8.6528-15.0528 11.264-28.8768 7.7824-40.96-0.6656-2.2528-1.4336-4.7104-2.2528-7.2704-2.7136-8.4992-6.7584-21.3504-4.4544-27.2896a32.1024 32.1024 0 0 1 19.2512-20.48 35.84 35.84 0 0 1 11.4176-1.792 52.8384 52.8384 0 0 1 19.2 3.8912c20.8896 8.2432 30.6688 33.4336 21.8112 56.2176z" p-id="2717"></path></svg>