<?xml version="1.0" standalone="no"?><!DOCTYPE svg PUBLIC "-//W3C//DTD SVG 1.1//EN" "http://www.w3.org/Graphics/SVG/1.1/DTD/svg11.dtd"><svg t="1754647878955" class="icon" viewBox="0 0 1024 1024" version="1.1" xmlns="http://www.w3.org/2000/svg" p-id="2641" xmlns:xlink="http://www.w3.org/1999/xlink" width="48" height="48"><path d="M0 0m78.769231 0l315.076923 0q78.769231 0 78.769231 78.769231l0 315.076923q0 78.769231-78.769231 78.769231l-315.076923 0q-78.769231 0-78.769231-78.769231l0-315.076923q0-78.769231 78.769231-78.769231Z" fill="#F1DD5A" p-id="2642"></path><path d="M551.384615 0m78.769231 0l315.076923 0q78.769231 0 78.769231 78.769231l0 315.076923q0 78.769231-78.769231 78.769231l-315.076923 0q-78.769231 0-78.769231-78.769231l0-315.076923q0-78.769231 78.769231-78.769231Z" fill="#6D5AF1" p-id="2643"></path><path d="M0 551.384615m78.769231 0l315.076923 0q78.769231 0 78.769231 78.769231l0 315.076923q0 78.769231-78.769231 78.769231l-315.076923 0q-78.769231 0-78.769231-78.769231l0-315.076923q0-78.769231 78.769231-78.769231Z" fill="#5A9EF1" p-id="2644"></path><path d="M551.384615 551.384615m78.769231 0l315.076923 0q78.769231 0 78.769231 78.769231l0 315.076923q0 78.769231-78.769231 78.769231l-315.076923 0q-78.769231 0-78.769231-78.769231l0-315.076923q0-78.769231 78.769231-78.769231Z" fill="#F2765A" p-id="2645"></path></svg>