<?xml version="1.0" standalone="no"?><!DOCTYPE svg PUBLIC "-//W3C//DTD SVG 1.1//EN" "http://www.w3.org/Graphics/SVG/1.1/DTD/svg11.dtd"><svg t="1754039688139" class="icon" viewBox="0 0 1024 1024" version="1.1" xmlns="http://www.w3.org/2000/svg" p-id="2893" xmlns:xlink="http://www.w3.org/1999/xlink" width="48" height="48"><path d="M0 0m247.808 0l528.384 0q247.808 0 247.808 247.808l0 528.384q0 247.808-247.808 247.808l-528.384 0q-247.808 0-247.808-247.808l0-528.384q0-247.808 247.808-247.808Z" fill="#229F19" p-id="2894"></path><path d="M850.4064 288.64c-9.5744-9.3824-23.9744-9.3824-33.6256 0L425.5872 627.1616a25.6 25.6 0 0 1-31.168 0l-187.2128-141.056c-9.5744-9.3824-23.9744-9.3824-33.6256 0-9.5744 9.3696-9.5744 23.4752 0 32.9344l220.8384 216.32c9.5744 9.3696 23.9744 9.3696 33.6256 0l422.4512-413.7984c9.4848-9.3824 9.4848-25.8944-0.0896-32.9472z" fill="#FFFFFF" p-id="2895"></path></svg>