<?xml version="1.0" standalone="no"?><!DOCTYPE svg PUBLIC "-//W3C//DTD SVG 1.1//EN" "http://www.w3.org/Graphics/SVG/1.1/DTD/svg11.dtd"><svg t="1753963985675" class="icon" viewBox="0 0 1024 1024" version="1.1" xmlns="http://www.w3.org/2000/svg" p-id="1879" width="48" height="48" xmlns:xlink="http://www.w3.org/1999/xlink"><path d="M512.121742 0c52.508444 0 99.555556 30.037333 125.724445 80.384l366.592 702.577778c26.225778 50.289778 26.225778 110.364444 0 160.654222-26.282667 50.346667-73.272889 80.384-125.724445 80.384H145.472853c-52.508444 0-99.441778-30.037333-125.724444-80.384a173.681778 173.681778 0 0 1 0-160.654222L386.397298 80.384C412.679964 30.094222 459.670187 0 512.121742 0z m-0.056889 103.537778a49.664 49.664 0 0 0-44.714666 28.672l-366.592 702.577778c-13.482667 25.770667-4.551111 48.526222 0 57.173333 4.494222 8.533333 17.749333 28.558222 44.714666 28.558222h733.127111c26.908444 0 40.220444-19.968 44.714667-28.558222 4.551111-8.647111 13.482667-31.402667 0-57.173333L556.722631 132.209778A49.493333 49.493333 0 0 0 512.121742 103.537778z" fill="#FB5E56" p-id="1880"></path><path d="M769.543964 717.539556L567.702187 330.581333c-20.878222-39.992889-72.988444-39.992889-93.866667 0l-201.955556 386.958223c-20.821333 39.992889 5.233778 89.941333 46.933334 89.941333H722.610631c41.756444 0 67.811556-49.948444 46.990222-89.884445z" fill="#FB5E56" fill-opacity=".3" p-id="1881"></path><path d="M516.559076 651.377778a51.484444 51.484444 0 0 1-51.2-51.768889V310.442667c0-28.615111 22.926222-51.768889 51.2-51.768889s51.2 23.153778 51.2 51.768889v289.166222c0 28.615111-22.983111 51.768889-51.2 51.768889z m-57.457778 118.784c0 32.426667 23.722667 58.595556 52.963555 58.595555s52.963556-26.168889 52.963556-58.595555c0-32.369778-23.722667-58.595556-52.963556-58.595556s-52.963556 26.225778-52.963555 58.595556z" fill="#FFFFFF" p-id="1882"></path></svg>