<?xml version="1.0" standalone="no"?><!DOCTYPE svg PUBLIC "-//W3C//DTD SVG 1.1//EN" "http://www.w3.org/Graphics/SVG/1.1/DTD/svg11.dtd"><svg t="1754039696696" class="icon" viewBox="0 0 1024 1024" version="1.1" xmlns="http://www.w3.org/2000/svg" p-id="3374" xmlns:xlink="http://www.w3.org/1999/xlink" width="48" height="48"><path d="M128 128a85.3248 85.3248 0 0 1 85.3248-85.3248h597.3504A85.3248 85.3248 0 0 1 896 128v773.632c0 69.2736-78.1312 109.696-134.656 69.632l-200.0128-141.6448a85.3248 85.3248 0 0 0-98.6624 0L262.656 971.264C206.1568 1011.3024 128 970.9056 128 901.632V128z" fill="#E4B233" p-id="3375"></path><path d="M491.6992 254.464c6.4-19.6864 34.2016-19.6864 40.576 0l32.4096 99.6864a21.3248 21.3248 0 0 0 20.3008 14.7456h104.832c20.6592 0 29.2608 26.4448 12.544 38.5792l-84.8384 61.6192a21.3248 21.3248 0 0 0-7.7312 23.8592l32.384 99.712c6.4 19.6608-16.1024 35.9936-32.8192 23.8336l-84.8128-61.6192a21.3248 21.3248 0 0 0-25.088 0l-84.8128 61.6192c-16.7168 12.16-39.2192-4.1728-32.8192-23.8336l32.384-99.712a21.3248 21.3248 0 0 0-7.7568-23.8592l-84.8128-61.6192c-16.7168-12.1344-8.1152-38.5792 12.544-38.5792h104.832a21.3248 21.3248 0 0 0 20.3008-14.7456l32.384-99.712z" fill="#FFFFFF" p-id="3376"></path></svg>