<?xml version="1.0" standalone="no"?><!DOCTYPE svg PUBLIC "-//W3C//DTD SVG 1.1//EN" "http://www.w3.org/Graphics/SVG/1.1/DTD/svg11.dtd"><svg t="1753964114938" class="icon" viewBox="0 0 1024 1024" version="1.1" xmlns="http://www.w3.org/2000/svg" p-id="4476" xmlns:xlink="http://www.w3.org/1999/xlink" width="48" height="48"><path d="M294.4 448a51.2 51.2 0 1 1 0 102.4 51.2 51.2 0 0 1 0-102.4z m217.6 0a51.2 51.2 0 1 1 0 102.4 51.2 51.2 0 0 1 0-102.4z m217.6 0a51.2 51.2 0 1 1 0 102.4 51.2 51.2 0 0 1 0-102.4z" fill="#FF6F26" p-id="4477"></path><path d="M512 0C229.8112 0 0 214.272 0 480l0.0512 6.8224c1.8944 127.1936 56.8448 245.8752 150.848 333.4912l2.0352 1.8816 0.0128 108.5184a89.6 89.6 0 0 0 11.52 43.9168l1.6128 2.7776a89.6 89.6 0 0 0 120.3968 31.3984l109.0048-61.3248 3.2512 0.7296c36.8896 7.808 74.8032 11.7888 113.2672 11.7888 282.1888 0 512-214.272 512-480S794.1888 0 512 0z m0 76.8c240.9344 0 435.2 181.1456 435.2 403.2S752.9344 883.2 512 883.2c-38.6176 0-76.5312-4.6592-113.088-13.7472l-14.7968-3.6736-135.296 76.0832a12.8 12.8 0 0 1-19.072-11.1488v-143.36l-13.3888-11.5072C127.8592 699.904 76.8 593.7024 76.8 480 76.8 257.9456 271.0656 76.8 512 76.8z" fill="#303133" p-id="4478"></path></svg>