<svg t="1753966353570" class="icon" viewBox="0 0 1024 1024" version="1.1" xmlns="http://www.w3.org/2000/svg" p-id="8414" width="128" height="128"><path d="M1018.199 358.508c-0.149-2.646-0.356-5.291-0.462-7.938-0.297-7.447-0.945-14.866-1.804-22.262-1.443-12.408-13.562-70.164-18.832-86.372a459.86 459.86 0 0 0-12.606-34.068c-6.734-16.218-14.307-32.026-22.849-47.362-12.991-23.322-27.872-45.355-45.063-65.814-13.192-15.697-27.546-30.198-43.483-43.12-11.009-8.925-22.667-16.87-35.132-23.624-7.339-3.976-14.94-7.376-22.828-10.081-8.251-2.831-16.73-4.652-25.389-5.881-11.645-1.651-23.295-2.815-35.063-2.714-4.544 0.039-9.09 0.016-13.635-0.025-16.829-0.15-33.537 1.198-50.143 3.891-8.224 1.334-16.366 3.063-24.405 5.249-7.182 1.953-14.266 4.22-21.233 6.863a219.091 219.091 0 0 0-32.105 15.235c-13.917 8.057-26.8 17.57-38.931 28.102-16.151 14.021-30.662 29.642-44.42 45.971-6.503 7.721-20.064 24.995-21.284 25.27-1.102-1.01-17.895-21.803-25.658-30.611-11.776-13.364-23.979-26.302-37.316-38.144-10.782-9.571-22.161-18.339-34.332-26.069-9.282-5.895-18.953-11.075-29.032-15.473a227.783 227.783 0 0 0-17.637-6.834c-7.412-2.522-90.894 4.931-111.559 17.991-27.391 17.312-50.36 39.578-70.653 64.626-33.333 41.146-57.765 87.234-74.938 137.227-6.568 19.122-11.549 38.681-15.544 58.512-4.621 22.94-6.897 46.142-7.713 69.463-0.396 11.307 0.851 22.644 2.005 33.935 2.85 27.882 9.29 54.956 17.915 81.565 10.156 31.334 23.95 61.055 39.597 89.978 16.854 31.158 36.416 60.564 57.402 89.047 28.43 38.588 281.898 315.334 345.732 330.76 0.155 0.058 0.292 0.097 0.392 0.1 29.308-6.646 243.886-209.521 262.406-229.023 15.821-16.659 31.234-33.687 46.163-51.152 13.125-15.356 25.852-31.031 38.086-47.102 14.225-18.686 27.752-37.862 40.417-57.646 8.986-14.035 17.555-28.32 25.47-42.982 9.354-17.326 44.837-107.901 47.639-119.171 2.525-10.167 9.135-48.963 9.78-58.165 0.752-10.709 1.649-21.405 1.045-32.152z" fill="#A9A9A9" p-id="8415"></path><path d="M685.54 219.716c3.725-2.506 6.67-4.632 9.76-6.523 3.867-2.368 7.764-4.721 11.805-6.768a147.082 147.082 0 0 1 30.372-11.401c5.991-1.521 12.063-2.512 18.119-3.631 0.124-0.023 0.25-0.041 0.375-0.052 8.296-0.727 16.612-1.343 24.929-0.781 10.69 0.72 21.275 2.354 31.568 5.387 12.011 3.538 23.505 8.325 34.341 14.688 5.775 3.392 11.222 7.237 16.613 11.172 2.437 1.776 4.651 3.86 6.933 5.847 2.091 1.819 4.179 3.647 6.188 5.557 3.751 3.566 6.997 7.593 10.392 11.488 3.07 3.524 5.895 7.211 8.614 11.008 3.975 5.551 7.454 11.393 10.699 17.375 4.941 9.117 8.808 18.702 11.982 28.563 2.705 8.404 4.672 17.007 6.068 25.711 2.106 13.127 2.021 26.377 1.548 39.618-0.104 2.878-0.621 5.751-1.095 8.603-0.392 2.36-0.498 4.741-0.92 7.109-1.97 11.071-4.893 21.853-8.88 32.37-2.284 6.027-4.859 11.907-7.837 17.613-5.143 9.859-11.157 19.147-18.138 27.824-3.003 3.734-6.33 7.167-9.464 10.778-0.484 0.559-1.116 1.013-1.746 1.412-0.293 0.186-0.808 0.096-0.853-0.38a10.938 10.938 0 0 1 0-2.245c0.107-0.998 0.447-1.979 0.486-2.975 0.337-8.564 1.221-17.115 0.771-25.697-0.326-6.282-0.609-12.563-1.299-18.829a256.12 256.12 0 0 0-3.121-20.513c-1.579-8.167-3.667-16.2-6.119-24.146-3.912-12.678-8.904-24.918-14.859-36.764-6.298-12.53-13.727-24.385-22.166-35.563a227.042 227.042 0 0 0-13.018-15.71c-4.073-4.492-8.233-8.883-12.605-13.067-4.55-4.355-9.413-8.364-14.265-12.388-4.378-3.629-8.997-6.928-13.657-10.141-4.97-3.427-10.009-6.797-15.4-9.578-3.696-1.909-7.307-3.995-11.044-5.816-6.119-2.981-12.433-5.52-18.784-7.973-8.141-3.142-16.528-5.369-25.006-7.301-5.637-1.284-11.285-2.564-17.089-2.955-1.108-0.077-2.196-0.475-4.198-0.926z" fill="#D3D3D3" p-id="8416"></path><path d="M291.464 44.161c-6.221 3.343-26.485 17.079-30.582 20.338-2.241 1.783-51.198 50.581-53.399 53.409-4.099 5.27-19.005 25.61-22.257 30.565-3.321 5.057-6.468 10.219-9.645 15.363-1.685 2.73-3.347 5.478-4.886 8.284-3.385 6.167-6.92 12.27-9.957 18.595-3.409 7.099-6.963 14.133-10.09 21.364-3.708 8.577-7.132 17.248-10.452 25.971-3.76 9.879-6.797 19.958-9.864 30.041-2.172 7.147-8.812 35.68-9.813 42.814-0.558 3.979-5.337 68.997-5.282 70.216 0.16 3.534 3.275 34.917 3.738 37.093 1.016 4.77 5.943 29.421 7.913 36.86 0.968 3.658 17.879 51.933 21.019 59.275a417.784 417.784 0 0 0 13.089 27.715c3.452 6.677 6.849 13.38 10.464 19.971 3.138 5.724 6.358 11.412 9.766 17.002 2.631 4.315 14.297 22.93 17.555 27.881 3.319 5.043 19.353 27.878 24.02 34.264 5.691 7.783 11.633 15.379 17.491 23.037 3.078 4.022 62.575 72.412 65.807 75.689 5.242 5.315 80.363 78.783 85.76 83.403 3.037 2.601 111.231 93.345 113.395 95.024 5.019 3.899 27.51 21.271 33.765 26.021 6.556 4.975 39.989 30.203 40.077 30.986-1.07 1.425-37.195 26.986-37.387 27.145-0.799 0.656-1.544 0.581-2.374-0.014-3.565-2.558-70.444-50.812-99.62-73.268-21.632-16.647-43.039-33.559-64.067-50.916-16.688-13.775-33.227-27.714-49.482-41.961-19.92-17.459-39.563-35.205-58.631-53.536-19.966-19.193-39.443-38.842-58.246-59.111-19.825-21.368-38.881-43.351-56.885-66.171-17.156-21.746-33.333-44.152-48.147-67.469-10.227-16.094-19.828-32.518-28.529-49.422-8.703-16.904-16.558-34.167-23.287-51.907-4.716-12.437-8.938-25.015-12.5-37.799a371.392 371.392 0 0 1-8.464-38.079c-2.365-14.052-3.739-28.199-4.356-42.421-0.226-5.272 2.294-42.447 3.019-48.41 1.543-12.668 3.836-25.218 6.68-37.669 4.021-17.604 9.12-34.912 15.359-51.912 4.412-12.019 9.275-23.86 14.724-35.47 6.867-14.627 14.49-28.878 22.958-42.712 10.222-16.699 21.516-32.671 34.065-47.812 14.639-17.659 30.801-33.879 48.991-48.159 13.237-10.392 27.381-19.452 42.776-26.598 11.838-5.493 24.198-9.515 37.213-11.401 13.306-1.928 26.657-3.413 40.159-3.189 8.753 0.144 17.514 0.009 26.265 0.226 12.954 0.323 25.806 1.76 38.591 3.762 0.872 0.137 6.188 1.164 6.367 1.323-0.929 0.976-64.616 17.36-72.824 21.769z" fill="#696969" p-id="8417"></path></svg>