<?xml version="1.0" standalone="no"?><!DOCTYPE svg PUBLIC "-//W3C//DTD SVG 1.1//EN" "http://www.w3.org/Graphics/SVG/1.1/DTD/svg11.dtd"><svg t="1753964111824" class="icon" viewBox="0 0 1024 1024" version="1.1" xmlns="http://www.w3.org/2000/svg" p-id="4319" xmlns:xlink="http://www.w3.org/1999/xlink" width="48" height="48"><path d="M977.454545 0a46.545455 46.545455 0 0 1 46.545455 46.545455v930.90909a46.545455 46.545455 0 0 1-46.545455 46.545455H46.545455a46.545455 46.545455 0 0 1-46.545455-46.545455V46.545455a46.545455 46.545455 0 0 1 46.545455-46.545455h930.90909zM744.727273 628.363636h-69.818182l-3.490909 0.116364A46.545455 46.545455 0 0 0 628.363636 674.909091v69.818182l0.116364 3.467636A46.545455 46.545455 0 0 0 674.909091 791.249455h69.818182l3.467636-0.116364A46.545455 46.545455 0 0 0 791.249455 744.727273v-69.818182l-0.116364-3.490909A46.545455 46.545455 0 0 0 744.727273 628.363636z m-197.818182 0h-69.818182l-3.490909 0.116364A46.545455 46.545455 0 0 0 430.545455 674.909091v69.818182l0.139636 3.467636a46.545455 46.545455 0 0 0 46.405818 43.054546h69.818182l3.490909-0.116364A46.545455 46.545455 0 0 0 593.454545 744.727273v-69.818182l-0.139636-3.490909A46.545455 46.545455 0 0 0 546.909091 628.363636zM349.090909 628.363636h-69.818182l-3.467636 0.116364A46.545455 46.545455 0 0 0 232.750545 674.909091v69.818182l0.116364 3.467636A46.545455 46.545455 0 0 0 279.272727 791.249455h69.818182l3.490909-0.116364A46.545455 46.545455 0 0 0 395.636364 744.727273v-69.818182l-0.116364-3.490909A46.545455 46.545455 0 0 0 349.090909 628.363636z m395.636364-197.818181h-69.818182l-3.490909 0.139636A46.545455 46.545455 0 0 0 628.363636 477.090909v69.818182l0.116364 3.490909A46.545455 46.545455 0 0 0 674.909091 593.454545h69.818182l3.467636-0.139636a46.545455 46.545455 0 0 0 43.054546-46.405818v-69.818182l-0.116364-3.490909A46.545455 46.545455 0 0 0 744.727273 430.545455z m-395.636364 0h-69.818182l-3.467636 0.139636a46.545455 46.545455 0 0 0-43.054546 46.405818v69.818182l0.116364 3.490909A46.545455 46.545455 0 0 0 279.272727 593.454545h69.818182l3.490909-0.139636A46.545455 46.545455 0 0 0 395.636364 546.909091v-69.818182l-0.116364-3.490909A46.545455 46.545455 0 0 0 349.090909 430.545455z m197.818182 0h-69.818182l-3.490909 0.139636A46.545455 46.545455 0 0 0 430.545455 477.090909v69.818182l0.139636 3.490909A46.545455 46.545455 0 0 0 477.090909 593.454545h69.818182l3.490909-0.139636A46.545455 46.545455 0 0 0 593.454545 546.909091v-69.818182l-0.139636-3.490909A46.545455 46.545455 0 0 0 546.909091 430.545455z m0 23.272727c12.823273 0.046545 23.226182 10.426182 23.272727 23.272727v69.818182l-0.162909 2.699636c-1.396364 11.566545-11.170909 20.526545-23.109818 20.573091h-69.818182l-2.699636-0.162909a23.342545 23.342545 0 0 1-20.573091-23.109818v-69.818182l0.162909-2.699636c1.396364-11.566545 11.170909-20.526545 23.109818-20.573091z m-51.712 35.002182A5.166545 5.166545 0 0 0 488.727273 493.381818v37.236364l0.279272 1.256727a5.096727 5.096727 0 0 0 7.400728 2.699636l36.189091-18.618181 1.047272-0.698182a4.352 4.352 0 0 0-1.047272-7.214546l-36.189091-18.734545zM744.727273 232.750545h-69.818182l-3.490909 0.116364A46.545455 46.545455 0 0 0 628.363636 279.272727v69.818182l0.116364 3.490909A46.545455 46.545455 0 0 0 674.909091 395.636364h69.818182l3.467636-0.116364A46.545455 46.545455 0 0 0 791.249455 349.090909v-69.818182l-0.116364-3.467636A46.545455 46.545455 0 0 0 744.727273 232.750545z m-197.818182 0h-69.818182l-3.490909 0.116364A46.545455 46.545455 0 0 0 430.545455 279.272727v69.818182l0.139636 3.490909A46.545455 46.545455 0 0 0 477.090909 395.636364h69.818182l3.490909-0.116364A46.545455 46.545455 0 0 0 593.454545 349.090909v-69.818182l-0.139636-3.467636a46.545455 46.545455 0 0 0-46.405818-43.054546zM349.090909 232.727273h-69.818182l-3.467636 0.116363A46.545455 46.545455 0 0 0 232.750545 279.272727v69.818182l0.116364 3.490909A46.545455 46.545455 0 0 0 279.272727 395.636364h69.818182l3.490909-0.116364A46.545455 46.545455 0 0 0 395.636364 349.090909v-69.818182l-0.116364-3.467636A46.545455 46.545455 0 0 0 349.090909 232.750545z" fill="#FF3030" p-id="4320"></path></svg>