<?xml version="1.0" standalone="no"?><!DOCTYPE svg PUBLIC "-//W3C//DTD SVG 1.1//EN" "http://www.w3.org/Graphics/SVG/1.1/DTD/svg11.dtd"><svg t="1759043540199" class="icon" viewBox="0 0 1024 1024" version="1.1" xmlns="http://www.w3.org/2000/svg" p-id="3353" xmlns:xlink="http://www.w3.org/1999/xlink" width="48" height="48"><path d="M512 36.141176c68.266667 0 132.517647 27.105882 180.705882 75.294118L913.568627 331.294118c48.188235 48.188235 75.294118 112.439216 75.294118 180.705882S961.756863 644.517647 913.568627 692.705882L693.709804 913.568627c-48.188235 48.188235-112.439216 75.294118-180.705882 75.294118-68.266667 0-132.517647-27.105882-180.705883-75.294118l-220.862745-220.862745c-99.388235-99.388235-99.388235-262.023529 0-362.415686L331.294118 110.431373c48.188235-48.188235 112.439216-74.290196 180.705882-74.290197m0-30.117647c-73.286275 0-146.572549 28.109804-202.792157 83.325491L90.352941 309.207843a285.997176 285.997176 0 0 0 0 405.584314l219.858824 219.858823c56.219608 56.219608 129.505882 83.32549 202.792157 83.325491s146.572549-28.109804 202.792156-83.325491l219.858824-219.858823c111.435294-111.435294 111.435294-293.145098 0-404.580392l-220.862745-220.862745C658.572549 34.133333 585.286275 6.023529 512 6.023529z" fill="#575757" p-id="3354"></path><path d="M592.313725 299.168627c18.070588 0 40.156863 6.023529 63.247059 23.090197 135.529412 97.380392-102.4 379.482353-136.533333 419.639215-1.003922 1.003922-3.011765 2.007843-4.015686 2.007843-1.003922 0-3.011765-1.003922-4.015687-2.007843-33.129412-40.156863-269.05098-323.262745-132.517647-420.643137 24.094118-17.066667 45.176471-23.090196 63.247059-23.090196 47.184314 0 75.294118 40.156863 75.294118 40.156863s28.109804-39.152941 75.294117-39.152942m0-60.235294c-30.117647 0-56.219608 9.035294-75.294117 21.082353-20.078431-12.047059-45.176471-21.082353-75.294118-21.082353-33.129412 0-66.258824 11.043137-98.384314 34.133334-37.145098 27.105882-60.235294 65.254902-65.254901 111.435294C261.019608 528.062745 417.631373 723.827451 466.823529 780.047059c12.047059 14.054902 30.117647 23.090196 50.196079 23.090196 19.07451 0 37.145098-8.031373 49.192157-22.086275 49.192157-56.219608 208.815686-251.984314 191.749019-396.549019-5.019608-46.180392-28.109804-85.333333-65.254902-111.435294-33.129412-23.090196-66.258824-34.133333-100.392157-34.133334z" fill="#2396F4" p-id="3355"></path><path d="M517.019608 552.156863c-17.066667 0-30.117647-13.05098-30.117647-30.117647v-82.321569c0-17.066667 13.05098-30.117647 30.117647-30.117647s30.117647 13.05098 30.117647 30.117647V522.039216c0 17.066667-14.054902 30.117647-30.117647 30.117647z" fill="#E85F5B" p-id="3356"></path><path d="M559.184314 510.996078h-83.32549c-17.066667 0-30.117647-13.05098-30.117648-30.117647s13.05098-30.117647 30.117648-30.117647h83.32549c17.066667 0 30.117647 13.05098 30.117647 30.117647s-14.054902 30.117647-30.117647 30.117647z" fill="#E85F5B" p-id="3357"></path></svg>