<?xml version="1.0" standalone="no"?><!DOCTYPE svg PUBLIC "-//W3C//DTD SVG 1.1//EN" "http://www.w3.org/Graphics/SVG/1.1/DTD/svg11.dtd"><svg t="1754039718982" class="icon" viewBox="0 0 1024 1024" version="1.1" xmlns="http://www.w3.org/2000/svg" p-id="4519" xmlns:xlink="http://www.w3.org/1999/xlink" width="48" height="48"><path d="M752 419.2h-64V304.1C688 207 609 128 512 128s-176 79-176 176.1v115.1h-64V304.1c0-64.1 25-124.4 70.3-169.8C387.6 89 447.9 64 512 64s124.4 25 169.7 70.3C727 179.7 752 240 752 304.1v115.1z" fill="#727272" p-id="4520"></path><path d="M864 507.7v360.2c0 50.8-40.5 92.1-90.2 92.1H250.2c-49.7 0-90.2-41.3-90.2-92.1V507.7c0-50.8 40.5-92.1 90.2-92.1h523.6c49.7 0.1 90.2 41.4 90.2 92.1z" fill="#E6C27C" p-id="4521"></path></svg>