<?xml version="1.0" encoding="utf-8"?>
<!DOCTYPE svg PUBLIC "-//W3C//DTD SVG 1.0//EN" "http://www.w3.org/TR/2001/REC-SVG-20010904/DTD/svg10.dtd">
<svg version="1.0" xmlns="http://www.w3.org/2000/svg" width="708px" height="708px" viewBox="0 0 708 708" preserveAspectRatio="xMidYMid meet">
 <g fill="none">
  <path d="M0 354 l0 -354 354 0 354 0 0 354 0 354 -354 0 -354 0 0 -354z m523.5 220.5 c21.8 -4.6 38.6 -20.1 46.1 -42.5 1.8 -5.2 1.9 -11.7 2.2 -111.7 l0.3 -106.3 3.5 0 c2.8 0 4.4 -0.8 7 -3.4 l3.4 -3.4 0 -31.8 c0 -33.5 -0.4 -37.5 -4.7 -45.9 -4.8 -9.3 -14.9 -17.9 -25.8 -22.1 -4.6 -1.7 -8.4 -1.9 -48.5 -2 l-43.5 -0.2 -0.6 -17.3 c-0.6 -18.7 -1.3 -22 -7.2 -33.4 -4.8 -9.2 -17.4 -21.4 -26.7 -25.8 -13.9 -6.5 -15.7 -6.7 -75.7 -6.7 -60.1 0 -62.2 0.2 -75.3 6.6 -5.6 2.8 -9.5 5.7 -15.5 11.8 -14.2 14.3 -18.5 26.1 -18.5 50.5 l0 14.6 -39 -0.3 c-23.9 -0.2 -41.6 0 -45.7 0.7 -19 2.9 -34.6 18.4 -37.3 36.8 -1.1 7.5 -1.4 57.2 -0.4 62.2 0.9 4.5 5.5 8.8 10.4 9.6 l4 0.7 0.2 106.6 0.3 106.7 2.7 7.4 c7 19.1 24.1 34.5 43.1 38.6 9.7 2.1 331.2 2.1 341.2 0z"/>
  <path d="M295 192.3 l0 -13.1 3.1 -2.6 3.1 -2.6 53 0 53 0 2.9 2.9 2.9 2.9 0 12.9 0 12.8 -59 0 -59 0 0 -13.2z"/>
 </g>
 <g fill="#e37b1a">
  <path d="M181.8 563 c-15.7 -2.7 -29.4 -16 -32.7 -31.8 -0.8 -3.7 -1.1 -37.5 -1.1 -111.2 l0 -106 30 0 30 0 -0.7 20.2 -0.6 20.2 -3.7 8.1 c-6.5 14 -9 23.5 -11.5 43.8 l-0.6 4.7 -6.8 0 c-5.3 0 -7.2 0.4 -8.4 1.8 -2.2 2.4 -2.1 3.5 0.1 5.5 1.3 1.2 11.4 3.6 15.3 3.7 0.3 0 1.2 3.3 1.8 7.4 0.7 4 2.1 10.2 3.1 13.7 1.1 3.5 2 8.2 2 10.5 l0 4.1 -8.6 1.8 c-6.8 1.4 -8.9 2.3 -10.1 4.2 -1.5 2.3 -1.5 2.6 0.5 4.6 2.1 2 2.4 2.1 9.4 0.8 4 -0.7 9.3 -1.5 11.8 -1.8 l4.5 -0.4 3.8 5.9 c26 41 85.3 69.2 145.2 69.2 45.1 0 93.5 -18 123.7 -46 7.2 -6.6 22.8 -25.8 22.8 -28 0 -1.4 5.6 -1.2 15 0.6 7.4 1.4 8.4 1.4 10.6 -0.1 2.4 -1.6 2.9 -3.1 1.6 -5.1 -1.2 -1.9 -4.5 -3.1 -11.9 -4.5 -7 -1.3 -7.3 -1.5 -7.3 -4.1 0 -1.5 1.1 -6.9 2.4 -12 1.3 -5.1 2.7 -11.9 3.1 -15 0.7 -5.7 0.8 -5.8 4.4 -6.3 8.3 -1.4 9.7 -1.8 11.8 -3.1 2.5 -1.6 3 -4.8 1.1 -6.1 -0.7 -0.4 -4.7 -1 -8.8 -1.3 l-7.5 -0.5 -0.7 -8.2 c-0.9 -11.4 -5 -25.9 -10.8 -38.3 l-4.9 -10.5 -0.4 -19.7 -0.3 -19.8 30.3 0 30.3 0 0 107.3 c0 115.8 0.1 112.7 -5.3 122 -6.1 10.4 -17 17.7 -29.3 19.7 -7.2 1.2 -335.7 1.1 -342.6 0z"/>
  <path d="M336.5 529 c-40.8 -3 -76.7 -17.4 -101.3 -40.5 -11.2 -10.5 -16.2 -17.3 -16.2 -21.8 0 -2.1 0.3 -3.7 0.8 -3.7 0.4 0 3.3 -0.4 6.6 -1 8.8 -1.4 12.1 -5.3 7.2 -8.5 -2 -1.3 -3.4 -1.4 -8.7 -0.5 -3.5 0.5 -8.2 1 -10.5 1 l-4.1 0 -2.3 -7.2 c-1.3 -4 -2.5 -10.6 -2.8 -14.5 l-0.5 -7.3 3.9 0 c2.2 0 8 0.7 12.9 1.4 l9 1.4 2.5 -2.4 2.4 -2.4 -2 -2.1 c-1.5 -1.5 -5.4 -2.6 -14.6 -4.3 -6.9 -1.3 -13.1 -2.7 -13.8 -3.1 -1.9 -1.2 -0.6 -22.2 2 -32 1.1 -4.4 4.5 -13 7.5 -19 l5.5 -11.1 0 -16.1 c0 -23.2 2.1 -52.3 5.1 -72 l1.2 -7.3 3.4 0 c6.7 0 31.1 18.3 54.2 40.5 l11.7 11.3 7.2 -2.4 c15.2 -4.9 23.8 -5.9 51.7 -5.9 23.4 0 27 0.2 36.2 2.3 5.7 1.3 11.8 2.9 13.7 3.7 5.9 2.5 7.7 1.9 13.6 -4.1 7.8 -7.9 27 -24.8 36.5 -32 13.4 -10.2 19.2 -13.6 22.8 -13.2 l3.2 0.3 1.6 11.5 c2.2 15.3 3.8 37.6 4.5 63.4 l0.6 21.1 5.4 11 c2.9 6.1 6.3 14.4 7.4 18.5 1.9 7 4.8 30.5 3.9 31.4 -0.2 0.2 -6.7 1.5 -14.3 2.9 -15.5 2.9 -17.7 4 -15.7 8.3 1.1 2.6 1.4 2.7 7.4 2 3.4 -0.3 9.8 -0.9 14.1 -1.3 l7.9 -0.6 -0.6 6.9 c-0.4 3.8 -1.7 10.3 -3 14.4 l-2.3 7.5 -5.4 0 c-3 0 -8.2 -0.4 -11.5 -0.8 -5.4 -0.7 -6.2 -0.6 -8.3 1.3 l-2.3 2.2 2.1 2.3 c1.5 1.6 4.2 2.6 9.6 3.4 7.3 1.2 7.4 1.3 7.4 4.3 0 5.7 -13.5 21 -27.9 31.7 -15.5 11.5 -42.9 23.4 -63.1 27.5 -17.2 3.5 -42.9 5 -61.5 3.6z m-0.6 -55.1 c2.7 -0.5 7 -2.3 9.5 -4 5.7 -3.6 9.4 -3.7 14.2 -0.4 5.2 3.5 13.6 5.8 18.3 5 9.4 -1.6 21.5 -10 24 -16.7 0.8 -2.1 0.6 -2.9 -1 -4.4 -1.9 -1.7 -2.1 -1.6 -7.7 4.3 -5.1 5.5 -6.3 6.2 -11.4 7.3 -10.4 2.1 -21.4 -1.2 -23.9 -7.2 -0.6 -1.5 -0.9 -5.2 -0.7 -8.2 0.4 -5.1 0.8 -5.8 5.7 -10.2 2.8 -2.6 5.9 -6 6.7 -7.7 1.5 -2.8 1.5 -3.1 -0.4 -4.9 -5 -5.1 -26.4 -5 -31.5 0 -2 2 -2 2 0.6 6.4 1.4 2.4 4.3 5.8 6.6 7.6 4.1 3.3 4.1 3.3 4.1 10.2 0 5.8 -0.4 7.4 -2.1 9.1 -3.4 3.4 -8.4 4.9 -16.5 4.9 -8.5 0 -13.5 -1.8 -16.2 -5.7 -4.9 -7.1 -5.7 -7.6 -8 -6.2 -6.1 3.8 5.1 16.4 18.1 20.4 5.3 1.7 5.6 1.7 11.6 0.4z m-37.4 -66.3 c3.9 -3 6.7 -8.6 6.7 -13.2 0 -4.8 -4.4 -11.8 -8.7 -13.8 -3.4 -1.6 -3.8 -1.6 -6.8 0.1 -2 1.2 -4.2 3.9 -6 7.5 -2.9 5.7 -2.9 5.7 -1.2 10.7 1.8 5.5 7.2 11.1 10.7 11.1 1.2 0 3.6 -1.1 5.3 -2.4z m119.2 0.2 c3.7 -2.6 7.3 -9 7.3 -13.1 0 -4.3 -2.4 -8.9 -6.4 -12.5 -4.5 -3.9 -5.9 -4 -10.4 -0.6 -4.3 3.4 -7.6 10.4 -6.8 14.8 0.9 4.5 4.1 9.3 7.8 11.6 4.1 2.5 4.5 2.5 8.5 -0.2z"/>
  <path d="M134 268.8 c0 -36.8 0.1 -37.2 8.7 -44.8 8.6 -7.6 -7.9 -7.1 212.8 -6.8 l198 0.3 4.5 2.1 c5.5 2.6 12.3 9.7 14.1 15 1.1 3 1.4 11.1 1.4 34.9 l0 31 -38 0 -38 0 -1.2 -12.5 c-1.7 -18.6 -4.1 -32.9 -6.1 -36.9 -2.5 -4.8 -7.6 -8.3 -11.1 -7.4 -10.4 2.5 -36.5 21.2 -57.1 40.9 -11.3 10.8 -11.9 11 -24.7 7.4 -13.6 -3.8 -26 -5.3 -43.8 -5.2 -18.4 0 -27.6 1 -42.7 4.8 -15 3.7 -14.6 3.8 -25.2 -6.5 -17.1 -16.7 -36.6 -31.9 -49 -38.1 -9 -4.6 -10.6 -4.8 -15.1 -2 -6.5 4 -7.6 8.4 -12.1 50.8 l-0.5 5.2 -37.5 0 -37.4 0 0 -32.2z"/>
  <path d="M256.7 205.3 c-1.1 -1 -0.8 -26 0.3 -33.8 2.5 -17.2 13 -29.7 29 -34.6 6.3 -1.9 9.1 -1.9 69.5 -1.7 l63 0.3 7.5 3.6 c9.1 4.3 15.9 10.9 20 19.4 4.1 8.2 5 14.2 5 31.6 l0 14.8 -5.2 0.6 c-2.9 0.3 -8.7 0.5 -12.8 0.3 l-7.5 -0.3 -0.6 -12 c-0.3 -6.6 -1.1 -13.3 -1.8 -15 -2.1 -5.2 -7.9 -11.2 -13.3 -13.9 l-5.2 -2.6 -51 0 c-57.4 0 -55.3 -0.2 -63.1 7.5 -6.2 6.2 -7.9 11.2 -8.3 24.8 l-0.4 11.7 -12.2 0 c-6.8 0 -12.6 -0.3 -12.9 -0.7z"/>
 </g>
 <g fill="#14150f">
  <path d="M179.3 577.5 c-19 -4.1 -36.1 -19.5 -43.1 -38.6 l-2.7 -7.4 -0.3 -106.7 -0.2 -106.6 -4 -0.7 c-4.9 -0.8 -9.5 -5.1 -10.4 -9.6 -1 -5 -0.7 -60.7 0.4 -68.2 2.7 -18.3 18.4 -33.9 37 -36.8 3.8 -0.5 23.1 -0.8 45.8 -0.7 l39.2 0.3 0 -14.6 c0 -24.4 4.3 -36.2 18.5 -50.5 6 -6.1 9.9 -9 15.5 -11.8 13.2 -6.4 14.9 -6.6 78.3 -6.6 63.3 0 64.7 0.1 78.7 6.7 9.3 4.4 21.9 16.6 26.7 25.8 5.9 11.4 6.6 14.7 7.2 33.2 l0.6 17.3 43.5 0.3 c39.7 0.2 43.9 0.4 48.5 2.1 10.8 4.1 21 12.8 25.8 22.1 4.3 8.5 4.7 12.3 4.7 48.9 l0 34.8 -3.4 3.4 c-2.6 2.6 -4.2 3.4 -7 3.4 l-3.5 0 -0.3 106.3 c-0.3 100 -0.4 106.5 -2.2 111.7 -7.5 22.4 -24.3 37.9 -46.1 42.5 -10 2.1 -337.5 2.1 -347.2 0z m342.1 -17.5 c12.3 -2 23.2 -9.3 29.3 -19.7 5.4 -9.3 5.3 -6.5 5.3 -119 l0 -104.3 -27.2 0 -27.3 0 0.5 17.7 0.5 17.8 4.7 9.6 c5.5 11.1 9.7 25.7 10.6 37.2 l0.7 8.2 5.5 -0.3 c8.9 -0.4 13 2.2 13 8.3 0 3.7 -3.9 7.2 -9.1 7.9 -10.2 1.6 -9.6 1.2 -10.4 7.4 -0.6 4.8 -3.3 16.7 -5 22.2 -0.4 1.2 1 1.9 6.7 2.9 4 0.7 8.2 1.8 9.4 2.3 4.8 2.2 5.4 10.3 1.1 13.3 -2.7 1.9 -7.2 1.9 -17.2 0 -5.9 -1.2 -8.1 -1.3 -8.4 -0.4 -0.2 0.6 -3.7 5.6 -7.7 10.9 -29.2 38.8 -83.8 63 -141.9 63 -47.9 0 -91.9 -15 -124.7 -42.4 -7.7 -6.4 -17.9 -18.1 -23.5 -26.7 -2.1 -3.2 -4.2 -5.7 -4.8 -5.5 -0.5 0.2 -5.4 1.1 -10.8 2.1 -9.7 1.9 -9.7 1.9 -12.5 -0.2 -1.9 -1.4 -2.8 -3 -3 -5.7 -0.5 -6.3 1.5 -8.1 11.2 -10.1 4.7 -1 8.6 -2.3 8.6 -2.9 0 -0.6 -0.9 -4 -2 -7.5 -1 -3.5 -2.4 -9.6 -3.1 -13.6 -1.3 -8.1 -0.1 -7.3 -11.6 -9 -2.2 -0.4 -4.9 -1.5 -5.9 -2.6 -2.5 -2.8 -2.3 -8.4 0.4 -11.2 1.9 -1.9 3.2 -2.2 8.7 -1.9 l6.4 0.2 0.6 -4.7 c2.5 -20.3 5 -29.8 11.5 -43.9 l3.7 -8.1 0.5 -17.2 0.4 -17.1 -26.8 0 -26.8 0 0 103 c0 71.5 0.3 104.5 1.1 108.2 3.3 15.8 17 29.1 32.7 31.8 6.9 1.1 329.4 1.2 336.6 0z m-142.9 -35.1 c20.7 -2.3 40.6 -8.3 59.6 -18 18.6 -9.5 35 -22.8 44.7 -36.3 l3.2 -4.4 -7.3 -1.2 c-8.5 -1.4 -11.7 -3.8 -11.7 -8.6 0 -2.1 0.8 -4.1 2.3 -5.5 2 -1.9 2.9 -2.1 10.7 -1.4 16 1.3 14.1 1.9 16.5 -6 1.2 -3.8 2.5 -8.9 2.8 -11.2 0.8 -5.1 1.6 -4.9 -12.6 -2.8 -5.6 0.9 -11.2 1.3 -12.4 1 -2.4 -0.6 -5.3 -5.1 -5.3 -8.3 0 -4.7 2.9 -6.2 17.5 -8.9 7.7 -1.4 14.1 -2.6 14.2 -2.7 0.2 -0.1 -0.2 -4.2 -0.8 -9.2 -1.4 -13 -4.5 -23.4 -10.4 -34.9 l-5.2 -10.2 -0.6 -21.9 c-1 -31.4 -4 -68 -6.2 -74.2 -1.2 -3.5 -37.8 25.1 -56.5 44.2 -6.8 7 -9.1 7.5 -19.1 4.3 -16.2 -5.3 -22.7 -6.2 -47.9 -6.2 -25.2 0 -33.2 1 -48.7 6.1 -4 1.3 -8.5 2.4 -9.9 2.4 -1.9 0 -5.6 -3 -14.4 -11.4 -6.5 -6.2 -16.9 -15.5 -23.1 -20.7 -10.9 -8.8 -27.6 -20.5 -28.4 -19.7 -0.6 0.6 -3.4 21 -4.5 33.3 -0.6 6.6 -1.3 23.3 -1.6 37 l-0.6 25 -5.4 11 c-2.9 6.1 -6.2 14.6 -7.4 19 -2.6 10.2 -3.8 24.9 -2 26 0.7 0.4 6.9 1.8 13.8 3.1 13.9 2.5 16.5 4.1 16.5 9.4 0 2 -0.9 4 -2.6 5.7 l-2.6 2.7 -9.8 -1.3 c-5.4 -0.7 -11.1 -1.5 -12.7 -1.8 l-2.9 -0.6 0.7 4.9 c0.3 2.7 1.6 8 2.8 11.8 l2.1 6.8 3.6 -0.6 c2 -0.3 6.8 -0.9 10.8 -1.2 6.7 -0.6 7.3 -0.5 9.7 1.9 5.9 5.9 2 12.1 -8.5 13.8 -3.5 0.6 -6.5 1.2 -6.8 1.4 -0.8 0.9 8.4 11.8 16.1 19 33 31 84.7 45.5 140.3 39.4z m-172.1 -232.1 c3.6 -33.5 4.6 -39.9 7.3 -45.5 2.1 -4.5 7.2 -7.5 13 -7.5 11 0 36.4 17.4 62 42.3 l9.1 9 9.9 -2.5 c16.3 -4.1 24.7 -5 45.8 -4.9 20.9 0 32.4 1.3 46.8 5.3 3.9 1.1 7.5 2 8 2 0.4 0 5.2 -4.2 10.7 -9.4 16.2 -15.6 37.5 -31.8 49.9 -38 3 -1.5 7.7 -3 10.5 -3.3 4.2 -0.4 5.7 -0.1 8.5 1.9 1.9 1.2 4.3 3.9 5.3 5.9 2 4 4.4 18.3 6.1 36.9 l1.2 12.5 35 0 35 0 0 -28 c0 -21.1 -0.4 -29 -1.4 -31.9 -1.8 -5.3 -8.6 -12.4 -14.1 -15 l-4.5 -2.1 -195 -0.3 c-217.4 -0.2 -201.2 -0.8 -209.8 6.8 -8.5 7.5 -8.7 8.4 -8.7 41.8 l0 29.2 34.4 0 34.5 0 0.5 -5.2z m72.8 -101.5 c0.4 -13.6 2.1 -18.5 8.3 -24.8 7.8 -7.7 5.4 -7.5 66.1 -7.5 l54 0 5.2 2.6 c5.4 2.7 11.2 8.7 13.3 13.9 0.7 1.7 1.5 8.4 1.8 14.9 l0.6 12 4.5 0.2 c2.5 0.2 6.9 0.1 9.8 -0.2 l5.2 -0.5 0 -11.8 c0 -14.4 -1.1 -20.7 -5 -28.6 -4.1 -8.5 -10.9 -15.1 -20 -19.4 l-7.5 -3.6 -60 -0.3 c-57.4 -0.2 -60.2 -0.2 -66.5 1.7 -16 4.9 -26.5 17.4 -29 34.6 -1 7.2 -1.4 26.8 -0.5 27.6 0.2 0.3 4.7 0.6 9.9 0.8 l9.4 0.2 0.4 -11.8z m130.8 1.4 c0 -9.6 -0.1 -9.9 -2.9 -12.8 l-2.9 -2.9 -50 0 -50 0 -3.1 2.6 c-3.1 2.6 -3.1 2.6 -3.1 12.7 l0 10.2 56 0 56 0 0 -9.8z"/>
  <path d="M321.3 476.5 c-9.7 -3 -17.5 -9.8 -20.1 -17.4 -2.2 -6.4 1 -10.6 7.8 -9.9 2.6 0.2 4 1.2 6.4 4.7 3.9 5.5 8.7 8.1 14.9 8.1 9.3 0 15.7 -4.4 15.7 -11 0 -3.4 -0.5 -4.3 -4.1 -7.2 -8.9 -7.1 -11.4 -16.8 -5.6 -21.2 2.6 -1.9 4.2 -2.1 17.2 -2.1 13 0 14.6 0.2 17.2 2.1 5.7 4.3 4.1 11.6 -4.3 19.3 -2.9 2.7 -5.6 6.1 -6 7.5 -2.2 9 11.6 16 22.7 11.3 1.9 -0.8 5.4 -3.7 7.8 -6.6 3.8 -4.5 4.7 -5.1 8 -5.1 9.3 0 9.5 10.5 0.5 19.2 -11.3 10.8 -30.4 12.7 -42.7 4.3 l-3.7 -2.4 -4.6 2.9 c-7.6 4.8 -18.5 6.2 -27.1 3.5z"/>
  <path d="M289.6 413 c-6.4 -2 -11.6 -10.5 -11.6 -18.9 0 -5.3 4.3 -13.7 8.2 -16.1 10.3 -6.3 22.3 2.6 22.3 16.5 -0.1 12.6 -9.1 21.4 -18.9 18.5z"/>
  <path d="M405.9 410.7 c-13.8 -9.1 -8.2 -34.7 7.6 -34.7 4.3 0 5.2 0.4 9 4.3 5.6 5.5 7.3 12.6 5 20.2 -1.7 5.6 -2.7 7 -6.9 10.3 -3.9 3 -10.2 3 -14.7 -0.1z"/>
 </g>
</svg>