<?xml version="1.0" standalone="no"?><!DOCTYPE svg PUBLIC "-//W3C//DTD SVG 1.1//EN" "http://www.w3.org/Graphics/SVG/1.1/DTD/svg11.dtd"><svg t="1753964100046" class="icon" viewBox="0 0 1024 1024" version="1.1" xmlns="http://www.w3.org/2000/svg" p-id="3618" xmlns:xlink="http://www.w3.org/1999/xlink" width="48" height="48"><path d="M487.484554 138.054722c-2.485437 2.485437-5.874669 3.954104-9.602824 3.954104h-105.631068c-7.456311 0-13.556929-6.100618-13.556929-13.556928 0-3.728155 1.581642-7.117387 3.954105-9.602825 2.485437-2.485437 5.874669-3.954104 9.602824-3.954104h105.631068c7.456311 0 13.556929 6.100618 13.556928 13.556929 0.112974 3.728155-1.355693 7.117387-3.954104 9.602824z m47.110327 0c-2.485437 2.485437-5.874669 3.954104-9.602825 3.954104s-7.117387-1.581642-9.602824-3.954104c-2.485437-2.485437-3.954104-5.874669-3.954104-9.602824s1.581642-7.117387 3.954104-9.602825c2.485437-2.485437 5.874669-3.954104 9.602824-3.954104 7.456311 0 13.556929 6.100618 13.556929 13.556929 0 3.728155-1.355693 7.117387-3.954104 9.602824z m0 0" fill="#333333" p-id="3619"></path><path d="M632.430715 85.295675H245.606355c-24.967343 0-45.189762 20.222418-45.189762 45.189762V849.56752c0 24.967343 20.222418 45.189762 45.189762 45.189762H632.430715c24.967343 0 45.189762-20.222418 45.189762-45.189762V130.485437c0-24.967343-20.222418-45.189762-45.189762-45.189762zM667.791703 838.270079c0 24.967343-20.222418 45.189762-45.189761 45.189762H258.372462c-24.967343 0-45.189762-20.222418-45.189761-45.189762V141.782877c0-24.967343 20.222418-45.189762 45.189761-45.189761h364.22948c24.967343 0 45.189762 20.222418 45.189761 45.189761V838.270079z" fill="#333333" p-id="3620"></path><path d="M778.393645 152.289497H391.569285c-24.967343 0-45.189762 20.222418-45.189762 45.189762v719.082083c0 24.967343 20.222418 45.189762 45.189762 45.189761h386.82436c24.967343 0 45.189762-20.222418 45.189762-45.189761V197.479259c0-24.967343-20.222418-45.189762-45.189762-45.189762zM355.417476 732.187114V519.004413l331.353927-308.759047c29.260371-29.373345 77.274492-29.373345 106.534864 0 14.686673 14.686673 22.030009 34.005296 22.030008 53.323919s-7.343336 38.637246-22.030008 53.323919L355.417476 732.187114z m451.21977 166.863195c0 24.967343-20.222418 45.189762-45.189761 45.189762H520.586055l286.051191-306.047661v260.857899z" fill="#333333" p-id="3621"></path></svg>