<?xml version="1.0" standalone="no"?><!DOCTYPE svg PUBLIC "-//W3C//DTD SVG 1.1//EN" "http://www.w3.org/Graphics/SVG/1.1/DTD/svg11.dtd"><svg t="1754039691649" class="icon" viewBox="0 0 1024 1024" version="1.1" xmlns="http://www.w3.org/2000/svg" p-id="3051" xmlns:xlink="http://www.w3.org/1999/xlink" width="48" height="48"><path d="M844.549689 110.743704H167.480889c-42.067437 0-76.17043 33.617541-76.17043 75.093333v74.653393c0 41.475793 34.102993 75.093333 76.17043 75.093333h677.076385c42.067437 0 76.17043-33.617541 76.17043-75.093333V185.837037c0-41.475793-34.102993-75.093333-76.17043-75.093333zM167.480889 177.493333h677.076385c4.672474 0 8.465067 3.731911 8.465067 8.343704v74.653393c0 4.611793-3.792593 8.343704-8.465067 8.343703H167.480889a8.404385 8.404385 0 0 1-8.465067-8.343703V185.837037c0-4.611793 3.792593-8.343704 8.465067-8.343704zM844.549689 387.314726H167.480889c-42.067437 0-76.17043 33.617541-76.17043 75.093333v74.653393c0 41.475793 34.102993 75.093333 76.17043 75.093333h677.076385c42.067437 0 76.17043-33.617541 76.17043-75.093333v-74.653393c0-41.475793-34.102993-75.093333-76.17043-75.093333z m-677.076385 66.74963h677.076385c4.672474 0 8.465067 3.739496 8.465067 8.343703v74.653393c0 4.611793-3.792593 8.343704-8.465067 8.343704H167.480889a8.404385 8.404385 0 0 1-8.465067-8.343704v-74.653393c0-4.604207 3.792593-8.343704 8.465067-8.343703z" fill="#505766" p-id="3052"></path><path d="M846.779733 663.885748c40.838637 0 73.940385 32.639052 73.940386 72.89363 0 18.432-15.1552 33.374815-33.852682 33.374815s-33.852681-14.942815-33.852681-33.374815a6.15917 6.15917 0 0 0-4.262875-5.825422l-1.972148-0.318578h-681.528889a6.235022 6.235022 0 0 0-5.916444 4.209778l-0.326163 1.941807v79.03763c0 2.723081 1.790104 5.028978 4.262874 5.840592l1.972148 0.310993h681.528889a6.189511 6.189511 0 0 0 6.242608-6.144c0-18.432 15.1552-33.374815 33.852681-33.374815s33.852681 14.942815 33.852682 33.374815c0 38.244504-29.878044 69.61683-67.879823 72.650903l-6.068148 0.242726h-681.528889c-38.790637 0-70.618074-29.453274-73.697659-66.916503l-0.242726-5.977126V736.786963c0-38.252089 29.878044-69.61683 67.879822-72.658489l6.068148-0.242726h681.528889z" fill="#EE2223" p-id="3053"></path></svg>