<?xml version="1.0" standalone="no"?><!DOCTYPE svg PUBLIC "-//W3C//DTD SVG 1.1//EN" "http://www.w3.org/Graphics/SVG/1.1/DTD/svg11.dtd"><svg t="1757350634765" class="icon" viewBox="0 0 1024 1024" version="1.1" xmlns="http://www.w3.org/2000/svg" p-id="3952" xmlns:xlink="http://www.w3.org/1999/xlink" width="48" height="48"><path d="M242.346667 256l20.48-20.48c64.853333-61.44 150.186667-102.4 242.346666-98.986667 95.573333 0 184.32 37.546667 245.76 98.986667a327.552 327.552 0 0 1 102.4 238.933333v20.48h-40.96c-17.066667 0-23.893333 13.653333-13.653333 27.306667l71.68 109.226667c10.24 17.066667 27.306667 13.653333 37.546667 0l71.68-109.226667c10.24-13.653333 3.413333-27.306667-13.653334-27.306667h-40.96v-20.48c0-112.64-47.786667-215.04-122.88-290.133333-75.093333-75.093333-177.493333-119.466667-293.546666-119.466667-112.64 0-218.453333 44.373333-293.546667 119.466667-13.653333 13.653333-20.48 23.893333-27.306667 34.133333-23.893333 37.546667 27.306667 75.093333 54.613334 37.546667z m20.48 259.413333c0 136.533333 109.226667 249.173333 249.173333 249.173334s249.173333-112.64 249.173333-249.173334c0-136.533333-112.64-249.173333-249.173333-249.173333-136.533333 0-249.173333 109.226667-249.173333 249.173333z m518.826666 256c-6.826667 10.24-10.24 13.653333-20.48 23.893334-64.853333 61.44-150.186667 98.986667-242.346666 95.573333-95.573333 0-184.32-37.546667-245.76-98.986667a327.552 327.552 0 0 1-102.4-238.933333v-20.48h40.96c17.066667 0 23.893333-13.653333 13.653333-27.306667L153.6 395.946667c-10.24-17.066667-27.306667-13.653333-37.546667 0l-71.68 109.226666c-10.24 13.653333-3.413333 27.306667 13.653334 27.306667h40.96v20.48c0 112.64 47.786667 215.04 122.88 290.133333 75.093333 75.093333 177.493333 119.466667 293.546666 119.466667 112.64 0 218.453333-44.373333 293.546667-119.466667 13.653333-13.653333 20.48-23.893333 27.306667-34.133333 23.893333-37.546667-27.306667-75.093333-54.613334-37.546667z m-192.554666-124.16H448v-37.973333h50.773333v-150.784h-42.837333v-29.184c23.850667-4.138667 39.637333-10.112 54.613333-19.712h34.517334v199.68h44.032v37.973333z" p-id="3953" fill="#d4237a"></path></svg>