<?xml version="1.0" standalone="no"?><!DOCTYPE svg PUBLIC "-//W3C//DTD SVG 1.1//EN" "http://www.w3.org/Graphics/SVG/1.1/DTD/svg11.dtd"><svg t="1754039730225" class="icon" viewBox="0 0 1024 1024" version="1.1" xmlns="http://www.w3.org/2000/svg" p-id="5168" xmlns:xlink="http://www.w3.org/1999/xlink" width="48" height="48"><path d="M183.466667 844.8c-12.8 0-23.466667-10.666667-23.466667-23.466667V226.133333c0-12.8 10.666667-21.333333 23.466667-21.333333H725.333333c12.8 0 23.466667 10.666667 23.466667 23.466667v595.2c0 12.8-10.666667 23.466667-23.466667 23.466666H183.466667z" fill="#E2B672" p-id="5169"></path><path d="M723.2 215.466667c6.4 0 12.8 6.4 12.8 12.8v595.2c0 6.4-6.4 12.8-12.8 12.8H183.466667c-6.4 0-12.8-6.4-12.8-12.8v-597.333334c0-6.4 6.4-12.8 12.8-12.8h539.733333m0-19.2H183.466667c-19.2 0-34.133333 14.933333-34.133334 32v595.2c0 19.2 14.933333 34.133333 34.133334 34.133334H725.333333c19.2 0 34.133333-14.933333 34.133334-34.133334V226.133333c-2.133333-17.066667-17.066667-32-36.266667-32z" fill="#C4934B" p-id="5170"></path><path d="M330.666667 313.6c-27.733333 0-51.2-23.466667-51.2-51.2v-10.666667c0-27.733333 23.466667-51.2 51.2-51.2H362.666667l2.133333-8.533333c6.4-42.666667 44.8-76.8 89.6-76.8s83.2 32 89.6 76.8l2.133333 8.533333h32c27.733333 0 51.2 23.466667 51.2 51.2v10.666667c0 27.733333-23.466667 51.2-51.2 51.2H330.666667z m123.733333-160c-23.466667 0-44.8 19.2-44.8 44.8s19.2 44.8 44.8 44.8 44.8-19.2 44.8-44.8-21.333333-44.8-44.8-44.8z" fill="#808080" p-id="5171"></path><path d="M454.4 128c40.533333 0 72.533333 27.733333 78.933333 66.133333l2.133334 19.2h42.666666c23.466667 0 40.533333 17.066667 40.533334 40.533334v10.666666c0 21.333333-19.2 40.533333-40.533334 40.533334H330.666667c-23.466667 0-40.533333-17.066667-40.533334-40.533334v-10.666666c0-21.333333 19.2-40.533333 40.533334-40.533334h42.666666l2.133334-19.2c4.266667-38.4 38.4-66.133333 78.933333-66.133333m0 125.866667c29.866667 0 55.466667-25.6 55.466667-55.466667s-25.6-55.466667-55.466667-55.466667-55.466667 25.6-55.466667 55.466667 23.466667 55.466667 55.466667 55.466667m0-147.2c-51.2 0-93.866667 36.266667-100.266667 85.333333h-23.466666c-34.133333 0-61.866667 27.733333-61.866667 61.866667v10.666666c0 34.133333 27.733333 61.866667 61.866667 61.866667h247.466666c34.133333 0 61.866667-27.733333 61.866667-61.866667v-10.666666c0-34.133333-27.733333-61.866667-61.866667-61.866667H554.666667c-8.533333-49.066667-49.066667-85.333333-100.266667-85.333333z m0 125.866666c-19.2 0-34.133333-14.933333-34.133333-34.133333 0-19.2 14.933333-34.133333 34.133333-34.133333 19.2 0 34.133333 14.933333 34.133333 34.133333 0 19.2-17.066667 34.133333-34.133333 34.133333z" fill="#606060" p-id="5172"></path><path d="M475.733333 906.666667c-17.066667 0-29.866667-12.8-29.866666-29.866667V460.8c0-17.066667 12.8-29.866667 29.866666-29.866667h230.4l155.733334 153.6v292.266667c0 17.066667-12.8 29.866667-29.866667 29.866667H475.733333z" fill="#FFFFFF" p-id="5173"></path><path d="M704 441.6l149.333333 147.2v288c0 10.666667-8.533333 19.2-19.2 19.2H475.733333c-10.666667 0-19.2-8.533333-19.2-19.2V460.8c0-10.666667 8.533333-19.2 19.2-19.2H704m8.533333-21.333333h-234.666666c-23.466667 0-40.533333 17.066667-40.533334 40.533333v416c0 21.333333 19.2 40.533333 40.533334 40.533333h356.266666c23.466667 0 40.533333-17.066667 40.533334-40.533333V580.266667l-162.133334-160z" fill="#CECECE" p-id="5174"></path><path d="M750.933333 571.733333c-17.066667 0-29.866667-12.8-29.866666-29.866666V448l125.866666 123.733333h-96z" fill="#FFFFFF" p-id="5175"></path><path d="M731.733333 473.6l89.6 87.466667h-68.266666c-10.666667 0-19.2-8.533333-19.2-19.2v-68.266667m-23.466667-51.2v119.466667c0 21.333333 19.2 40.533333 40.533333 40.533333h121.6l-162.133333-160z" fill="#CECECE" p-id="5176"></path></svg>