<?xml version="1.0" standalone="no"?><!DOCTYPE svg PUBLIC "-//W3C//DTD SVG 1.1//EN" "http://www.w3.org/Graphics/SVG/1.1/DTD/svg11.dtd"><svg t="1757350620894" class="icon" viewBox="0 0 1024 1024" version="1.1" xmlns="http://www.w3.org/2000/svg" p-id="3563" xmlns:xlink="http://www.w3.org/1999/xlink" width="48" height="48"><path d="M185.6 892.16a8 8 0 0 1-5.6-2.4 501.12 501.12 0 0 1 708.64-708.64 8 8 0 0 1-11.36 11.36A485.12 485.12 0 0 0 192 878.56a8 8 0 0 1-5.6 13.6z" fill="#1296db" p-id="3564"></path><path d="M318.88 730.24a8 8 0 0 1-5.6-2.4A292.32 292.32 0 0 1 726.72 314.4a8 8 0 0 1 0 11.36L324.48 727.84a8 8 0 0 1-5.6 2.4zM519.84 244.8a276.32 276.32 0 0 0-200.96 466.08L709.6 320a274.4 274.4 0 0 0-189.76-75.2zM286.72 993.28a8 8 0 0 1-5.6-2.4L184 893.76a8 8 0 0 1 11.36-11.36l91.36 91.36L972.64 288l-91.36-91.36a8 8 0 0 1 11.36-11.36l97.12 97.12a8 8 0 0 1 0 11.36L292.32 990.88a8 8 0 0 1-5.6 2.4z" fill="#1296db" p-id="3565"></path><path d="M186.72 889.6a8 8 0 0 1-5.6-13.6L224 833.44a8 8 0 0 1 11.36 11.36L192 887.2a8 8 0 0 1-5.28 2.4z m-32.8-35.04a8 8 0 0 1-5.12-14.08l48-39.68a8 8 0 0 1 10.24 12.32l-48 39.68a8 8 0 0 1-5.12 1.76zM124.16 812a8 8 0 0 1-4.48-14.72l53.92-36.16a8 8 0 0 1 8.96 13.28L128 810.56a8 8 0 0 1-3.84 1.44zM100 770.88a8 8 0 0 1-4-15.04l56-32a8 8 0 1 1 8 13.92l-56 32a8 8 0 0 1-4 1.12z m-25.28-48.16a8 8 0 0 1-3.2-16L152.64 672a8 8 0 0 1 6.4 14.72l-81.12 35.36a8.16 8.16 0 0 1-3.2 0.64zM64 662.88a8 8 0 0 1-2.08-16l58.08-15.2a8 8 0 1 1 4 16l-58.08 15.2z m-11.2-46.72a8 8 0 0 1-1.28-16L112 590.08a8 8 0 1 1 2.56 16l-61.12 10.08zM48 564.32a8 8 0 0 1 0-16l64.96-4.32a7.68 7.68 0 0 1 8.48 7.52 8 8 0 0 1-7.52 8.48l-64.8 3.84z m64.96-47.2h-64a8 8 0 0 1 0-16H48h64a8 8 0 0 1 0 16z m26.08-44.48h-0.96l-88-10.24a8 8 0 0 1 1.92-16l88.16 10.24a8 8 0 0 1-0.96 16zM128 421.28h-2.24l-58.24-17.44a8 8 0 1 1 4.64-16l57.44 17.12a8 8 0 0 1-2.24 16z m14.4-39.68a8 8 0 0 1-3.04 0l-57.44-23.52a8 8 0 1 1 5.92-14.88l57.44 22.88a8 8 0 0 1-3.04 16z m23.36-39.2a8 8 0 0 1-3.68-0.96l-57.6-30.08a8 8 0 0 1 7.52-14.24l57.44 30.24a8 8 0 0 1-3.68 15.04z m21.92-37.28a8.16 8.16 0 0 1-4.16-1.12L128 270.08a8 8 0 0 1 8.96-14.08L192 290.4a8 8 0 0 1-4.16 14.88z m45.44-24.48a7.84 7.84 0 0 1-4.96-1.76L158.08 224a8 8 0 1 1 9.76-12.64l70.08 54.4a8 8 0 0 1-4.96 14.24z m12.32-53.6A8 8 0 0 1 240 224l-39.2-45.44a8 8 0 1 1 12.16-10.4l39.2 45.44a8 8 0 0 1-6.08 13.28z m34.08-25.28a8 8 0 0 1-6.56-3.36L237.12 148a8 8 0 1 1 12.96-9.28l36 50.4a8 8 0 0 1-6.56 12.64zM320 181.44a8 8 0 0 1-6.88-4l-32-56.48a8 8 0 1 1 13.92-7.84l32 56.48a8 8 0 0 1-3.04 10.88 7.84 7.84 0 0 1-4 0.96z m39.04-19.52a8 8 0 0 1-7.04-4.48L323.84 99.2a8 8 0 1 1 14.4-6.88l28 58.24a8 8 0 0 1-7.2 11.52z m51.36 3.84a8 8 0 0 1-7.52-5.28l-29.6-83.68a8 8 0 1 1 15.04-5.28l29.6 83.68a8 8 0 0 1-4.96 10.24 7.84 7.84 0 0 1-2.56 0.32z m41.6-41.6a8 8 0 0 1-7.84-6.72l-9.76-59.2a8 8 0 0 1 16-2.56l9.76 59.2a8 8 0 0 1-6.56 9.28z m42.24-3.84a8 8 0 0 1-8-7.36l-4.48-61.76a8 8 0 0 1 7.36-8.64 8.32 8.32 0 0 1 8.64 7.36l4.48 62.08a8 8 0 0 1-7.36 8.64z m45.44 3.84a8 8 0 0 1-7.68-8.32l2.08-64.96a8 8 0 0 1 8.32-7.68 8 8 0 0 1 7.68 8.32L548 116.48a8 8 0 0 1-8.32 7.68z m43.2 3.84h-0.8a8 8 0 0 1-7.2-8.8l6.4-64a8 8 0 0 1 16 1.6l-6.4 64a8 8 0 0 1-8 7.2zM624 157.76h-1.6a8 8 0 0 1-6.24-9.44l19.04-87.04a8 8 0 1 1 16 3.36l-18.56 86.72a8 8 0 0 1-8.64 6.4zM686.88 144a7.84 7.84 0 0 1-3.04 0 8 8 0 0 1-4.32-10.4l22.56-55.52a8 8 0 0 1 14.88 6.08l-22.72 54.4a8 8 0 0 1-7.36 5.44z m38.08 18.56a7.84 7.84 0 0 1-3.68-0.96 8 8 0 0 1-3.36-10.72L746.24 96a8 8 0 0 1 14.24 7.36L732 158.08a8 8 0 0 1-7.04 4.48z m36.64 26.88a8 8 0 0 1-6.72-12.32l35.68-54.24a8 8 0 0 1 13.44 8.8l-36 54.24a8 8 0 0 1-6.4 3.52z m34.88 25.6a8 8 0 0 1-6.4-12.8l39.04-51.36a8 8 0 0 1 12.8 9.76L802.88 212a8 8 0 0 1-6.4 3.04zM816 262.56a8 8 0 0 1-5.76-13.44l60.96-64a8 8 0 0 1 11.68 11.04l-60.96 64a8 8 0 0 1-5.92 2.4z m-494.88 694.4a8 8 0 0 1-5.6-2.4L272.96 912a8 8 0 0 1 11.36-11.36l42.4 43.36a8 8 0 0 1-5.6 13.6z m27.68-27.84a8 8 0 0 1-5.6-2.4l-42.4-42.24a8 8 0 0 1 11.36-11.36l42.4 42.4a8 8 0 0 1-5.6 13.6z m27.84-27.68a8 8 0 0 1-5.6-2.4l-42.4-42.4A8 8 0 0 1 340 845.28l42.4 42.4a8 8 0 0 1-5.6 13.6z m27.68-27.68a8 8 0 0 1-5.6-2.4l-42.4-42.4A8 8 0 0 1 368 817.6l42.4 42.4a8 8 0 0 1-5.6 13.6zM432 845.92a8 8 0 0 1-5.6-2.4l-66.4-66.4a8 8 0 0 1 11.36-11.36l66.4 66.24a8 8 0 0 1-5.6 13.6z m33.76-33.6a8 8 0 0 1-5.6-2.4L417.6 768a8 8 0 0 1 11.36-11.36l42.4 42.4a8 8 0 0 1-5.6 13.6zM493.44 784a8 8 0 0 1-5.6-2.4l-42.4-42.4a8 8 0 0 1 11.36-11.36l42.4 42.4a8 8 0 0 1-5.6 13.6z m27.68-27.2a8 8 0 0 1-5.6-2.4l-42.4-42.4a8 8 0 0 1 11.36-11.36l42.4 42.4a8 8 0 0 1-5.6 13.6z m27.84-27.68a8 8 0 0 1-5.6-2.4l-42.56-42.4a8 8 0 1 1 11.36-11.36l42.4 42.4a8 8 0 0 1-5.6 13.6zM576 701.28a8 8 0 0 1-5.6-2.4l-66.4-66.4a8 8 0 0 1 11.36-11.36L582.4 688a8 8 0 0 1-5.6 13.6z m35.04-34.4a8 8 0 0 1-5.6-2.4l-42.4-42.4a8 8 0 0 1 11.36-11.36l42.4 42.4a8 8 0 0 1-5.6 13.6z m27.84-27.68a8 8 0 0 1-5.6-2.4l-42.4-42.4a8 8 0 0 1 11.36-11.36l42.4 42.4a8 8 0 0 1-5.6 13.6z m27.68-27.84a8 8 0 0 1-5.6-2.4l-42.4-42.4a8 8 0 0 1 11.36-11.36L672 597.76a8 8 0 0 1-5.6 13.6z m27.68-27.68a8 8 0 0 1-5.6-2.4l-42.4-42.4A8 8 0 0 1 657.6 528l42.4 42.4a8 8 0 0 1-5.6 13.6zM722.08 556a8 8 0 0 1-5.6-2.4l-66.4-66.4a8 8 0 0 1 11.36-11.36l66.4 66.4a8 8 0 0 1-5.6 13.6z m33.76-33.76a8 8 0 0 1-5.6-2.4l-42.4-42.4a8 8 0 0 1 11.36-11.36l42.4 42.4a8 8 0 0 1-5.6 13.6zM784 494.56a8 8 0 0 1-5.6-2.4l-42.4-42.4a8 8 0 0 1 11.36-11.36l42.4 42.4a8 8 0 0 1-5.6 13.6z m27.2-27.84a8 8 0 0 1-5.6-2.4l-42.4-42.24a8 8 0 0 1 11.36-11.36l42.4 42.4a8 8 0 0 1-5.6 13.6z m27.84-27.68a8 8 0 0 1-5.6-2.4l-42.4-42.4a8 8 0 0 1 11.36-11.36l42.4 42.4a8 8 0 0 1-5.6 13.6z m27.68-27.68a8 8 0 0 1-5.6-2.4l-66.4-66.4a8 8 0 0 1 11.36-11.36l66.4 66.4a8 8 0 0 1-5.6 13.6z m32.8-32.96a8 8 0 0 1-5.6-2.4l-42.4-42.4a8 8 0 0 1 11.36-11.36l42.4 42.4a8 8 0 0 1-5.6 13.6zM928 350.72a8 8 0 0 1-5.6-2.4l-42.4-42.4a8 8 0 0 1 11.36-11.36l42.4 42.4a8 8 0 0 1-5.6 13.6z m27.04-27.84a8 8 0 0 1-5.6-2.4l-42.4-42.4a8 8 0 0 1 11.36-11.36l41.6 42.56a8 8 0 0 1-5.6 13.6z m27.68-27.68a8 8 0 0 1-5.6-2.4l-42.4-42.4a8 8 0 0 1 11.36-11.36l42.4 42.4a8 8 0 0 1-5.6 13.6z" fill="#1296db" p-id="3566"></path></svg>