<?xml version="1.0" standalone="no"?><!DOCTYPE svg PUBLIC "-//W3C//DTD SVG 1.1//EN" "http://www.w3.org/Graphics/SVG/1.1/DTD/svg11.dtd"><svg t="1757564319260" class="icon" viewBox="0 0 1344 1024" version="1.1" xmlns="http://www.w3.org/2000/svg" p-id="3338" xmlns:xlink="http://www.w3.org/1999/xlink" width="63" height="48"><path d="M559.104 595.392a281.6 281.6 0 0 0 108.032-221.696A282.432 282.432 0 0 0 384.384 91.52a282.432 282.432 0 0 0-282.56 282.24c0 89.856 42.368 169.856 108.096 221.632A384.576 384.576 0 0 0 0 912.512H768.96a384.96 384.96 0 0 0-209.92-317.12z" fill="#686FE8" opacity=".501" p-id="3339"></path><path d="M1077.76 595.392a281.6 281.6 0 0 0 108.096-221.696A282.432 282.432 0 0 0 903.04 91.52a282.432 282.432 0 0 0-282.56 282.24c0 89.856 42.368 169.856 108.032 221.632a384.576 384.576 0 0 0-209.92 317.12H1287.68a384.96 384.96 0 0 0-209.92-317.12z" fill="#686FE8" opacity=".501" p-id="3340"></path><path d="M882.56 617.408a342.976 342.976 0 0 0 133.76-271.104c0-190.72-156.672-345.088-350.016-345.088-193.024 0-349.824 154.368-349.824 345.088 0 109.952 52.48 207.808 133.76 271.104-145.792 73.28-248.576 218.24-259.84 387.84H1142.464c-11.392-169.6-114.048-314.56-259.84-387.84z" fill="#686FE8" p-id="3341"></path></svg>