<?xml version="1.0" standalone="no"?><!DOCTYPE svg PUBLIC "-//W3C//DTD SVG 1.1//EN" "http://www.w3.org/Graphics/SVG/1.1/DTD/svg11.dtd"><svg t="1757564313060" class="icon" viewBox="0 0 1024 1024" version="1.1" xmlns="http://www.w3.org/2000/svg" p-id="3178" xmlns:xlink="http://www.w3.org/1999/xlink" width="48" height="48"><path d="M43.52 800.256c-24.064 0-43.52-19.456-43.52-43.52s19.968-43.52 43.52-43.52h113.152c59.392 0 129.024-77.312 200.192-168.96l12.8 16.896c14.336 18.432 27.648 36.352 41.472 54.272-80.384 100.864-162.816 184.32-254.464 184.32H43.52zM1016.32 279.552l-71.68 71.68v0.512l-71.68 71.68c-10.24 9.728-26.624 9.728-37.376 0-5.632-5.632-8.192-13.312-7.68-20.48V304.64h-107.008c-59.392 0-128.512 77.312-200.192 168.96l-12.288-16.896c-14.336-18.432-27.648-36.352-41.984-54.272 80.896-100.864 163.328-184.832 254.976-184.832h107.008V117.248c0-14.336 11.776-26.112 26.112-26.112 7.168 0 14.336 3.584 18.432 7.68l71.68 72.192 71.68 71.68c10.24 10.752 10.24 27.136 0.512 37.376l-0.512-0.512z" fill="#2C6DF8" p-id="3179"></path><path d="M961.024 261.12c-27.136-26.624-54.272-53.76-80.896-80.896v161.792c26.624-27.136 53.76-53.76 80.896-80.896zM720.896 713.216h66.048v87.04h-66.048c-115.712 0-216.064-132.608-316.928-265.216-87.04-115.2-175.104-230.4-247.808-230.4h-112.64C19.968 304.64 0 285.184 0 261.12s19.968-43.52 43.52-43.52h113.152c115.712 0 216.064 132.608 316.928 265.216 87.552 115.2 174.592 230.4 247.296 230.4z" fill="#2C6DF8" p-id="3180"></path><path d="M1016.832 775.168h-0.512l-71.68 71.68-71.68 72.192c-10.24 10.24-26.624 10.24-37.376 0-4.096-4.096-6.144-8.704-7.168-13.824V609.28c1.536-12.288 12.8-22.528 25.6-22.528 7.168 0 14.336 3.072 18.432 8.192l143.872 143.872c10.24 9.728 10.24 26.624 0.512 36.352z" fill="#2CD7AA" p-id="3181"></path><path d="M961.024 757.248c-27.136 26.624-54.272 53.76-80.896 80.896V675.84l27.648 27.648 53.248 53.76z" fill="#2CD7AA" p-id="3182"></path></svg>