<?xml version="1.0" standalone="no"?><!DOCTYPE svg PUBLIC "-//W3C//DTD SVG 1.1//EN" "http://www.w3.org/Graphics/SVG/1.1/DTD/svg11.dtd"><svg t="1754039716826" class="icon" viewBox="0 0 1024 1024" version="1.1" xmlns="http://www.w3.org/2000/svg" p-id="4357" xmlns:xlink="http://www.w3.org/1999/xlink" width="48" height="48"><path d="M526.6 809.8l-103.3-146c-3.9-5.5-12.3-4.1-14.3 2.2l-15.2 47.7c-1.5 4.9-7.1 7.1-11.6 4.7-82.4-44.4-138.4-131.5-138.4-231.7 0-12.5 0.9-24.7 2.6-36.7 0.5-3.3-1.2-6.6-4.1-8.2l-114.4-63c-4.3-2.4-9.7-0.4-11.5 4.2-13.8 36.9-21.4 76.8-21.4 118.6 0 161.4 113.3 296.3 264.7 329.6 4.1 0.9 6.8 4.7 6.3 8.8l-7.4 65.2c-0.8 6.7 6.4 11.3 12.2 7.9l153.5-91.7c3.9-2.4 5.1-7.8 2.3-11.6z" fill="#86C778" p-id="4358"></path><path d="M136.7 434.5l102.5 56.4c-1.4 11.2-2.1 22.6-2.1 33.8 0 102.5 56.1 196.5 146.5 245.2 3.4 1.9 7.3 2.8 11.2 2.8 10.3 0 19.3-6.6 22.5-16.4l10.7-33.6 90.2 127.5-133.9 80 5.8-50.5c1.4-12-6.5-23-18.3-25.6-35.6-7.8-69.4-21.6-100.4-40.9-30.5-18.9-57.4-42.7-80.1-70.5-22.9-28.1-40.7-59.5-53-93.5-12.7-35.1-19.1-72-19.1-109.7-0.1-36 5.8-71.3 17.5-105m-4-18.7c-3.2 0-6.4 2-7.6 5.2-13.8 36.9-21.4 76.8-21.4 118.5 0 161.4 113.3 296.3 264.7 329.6 4 0.9 6.8 4.7 6.3 8.8l-7.4 65.2c-0.6 5.1 3.5 9.1 8.1 9.1 1.4 0 2.8-0.4 4.2-1.2L533 859.3c4.1-2.4 5.2-7.8 2.5-11.7l-103.3-146c-1.6-2.3-4.1-3.4-6.6-3.4-3.3 0-6.6 2-7.8 5.7l-15.2 47.7c-1.1 3.5-4.3 5.7-7.7 5.7-1.3 0-2.6-0.3-3.9-1-82.4-44.4-138.4-131.5-138.4-231.6 0-12.5 0.9-24.7 2.6-36.7 0.5-3.3-1.2-6.6-4.1-8.2l-114.4-62.9c-1.3-0.8-2.7-1.1-4-1.1z" fill="#27323A" p-id="4359"></path><path d="M199.1 363.5l177.8-19.8c6.6-0.7 9.6-8.8 5-13.6l-34.4-36.4c-3.5-3.7-2.7-9.6 1.5-12.4 78.7-50.6 182-57.5 269.7-9 10.9 6 21.2 12.7 30.9 20 2.7 2 6.3 2.2 9.2 0.4L769.3 223c4.2-2.6 5.1-8.3 1.9-12.1-25.6-30-56.9-55.9-93.4-76.1C536.4 56.6 363.5 90.5 261.1 207c-2.7 3.1-7.4 3.7-10.8 1.3l-53.5-38.1c-5.5-3.9-13 0.2-12.8 6.9l6 178.7c0.3 4.6 4.4 8.2 9.1 7.7z" fill="#F4CE73" p-id="4360"></path><path d="M715.2 193.9l-99 62.3c-9.1-6.6-18.7-12.7-28.6-18.2-89.7-49.7-199.1-46.2-285.5 9.2-3.3 2.1-6 5-7.9 8.4-5 9-3.6 20.1 3.5 27.6l24.2 25.7L166.6 326l-5.1-155.9 41.4 29.5c9.8 7 23.3 5.5 31.3-3.6 24.1-27.3 52.5-50.2 84.4-68C350 110.6 383.8 98.6 419.2 92.2c35.7-6.4 71.8-6.7 107.4-1 36.8 5.9 72.2 18.1 105.2 36.4 31.5 17.5 59.5 39.8 83.4 66.3m18.3 5.6c1.6-2.8 1.4-6.5-0.9-9.2-25.5-30-56.8-56-93.3-76.2-141.2-78.2-314.2-44.5-416.7 71.8-2.7 3.1-7.4 3.6-10.8 1.2L158.5 149c-4.2-3-9.6-1.3-11.8 2.7-0.7 1.2-1 2.6-1 4.2l5.8 178.6c0.2 4.7 4.3 8.3 9 7.8l177.7-19.6c2.8-0.3 5-2 6.2-4.1 1.6-2.9 1.5-6.7-1.2-9.5l-34.3-36.4c-2.5-2.7-2.8-6.5-1.2-9.5 0.6-1.1 1.6-2.2 2.7-2.9 78.8-50.5 182.1-57.3 269.7-8.7 10.9 6 21.2 12.8 30.9 20 2.7 2 6.3 2.2 9.2 0.4l110.5-69.6c1.2-0.7 2.1-1.8 2.8-2.9z" fill="#27323A" p-id="4361"></path><path d="M749.1 311.9L674 474.3c-2.8 6.1 2.5 12.7 9.1 11.3L732 475c5-1.1 9.7 2.6 9.8 7.7 2.6 93.6-45 185.5-131.8 235.4-10.8 6.2-21.9 11.6-33.1 16.1-3.1 1.3-5.1 4.3-5 7.6l2.5 130.6c0.1 4.9 4.5 8.6 9.4 7.8 38.9-6.4 77.3-19.7 113.5-40.5 139.9-80.5 200.4-246 153.8-393.8-1.2-4 0.7-8.2 4.5-9.9l60.3-26.1c6.1-2.7 6.6-11.2 0.7-14.5l-156-87.3c-4.3-2.2-9.5-0.5-11.5 3.8z" fill="#77D2FF" p-id="4362"></path><path d="M615.1 836.9l-1.5-117c10.4-4.3 20.6-9.3 30.4-14.9 89.2-50.5 143.3-145.7 141.2-248.3-0.1-3.9-1.1-7.8-3.1-11.2-5.1-9-15.3-13.6-25.4-11.5l-34.5 7.3L788.9 300l135.6 77.1-46.8 19.9c-11.1 4.7-16.8 17-13.3 28.6 10.7 34.8 15.4 71 13.9 107.5-1.5 35.8-8.8 71-21.9 104.5-13.2 33.8-31.8 64.8-55.2 92.1-24.3 28.3-53.2 52.1-86 70.7-31.3 17.7-65 30-100.1 36.5m-14.3 12.7c1.6 2.8 4.8 4.6 8.3 4 38.9-6.1 77.4-19.2 113.7-39.8 140.5-79.5 202-244.6 156.4-392.8-1.2-4 0.7-8.2 4.6-9.8l60.4-25.7c4.7-2 6.1-7.5 3.9-11.5-0.7-1.2-1.7-2.3-3.1-3l-155.4-88.3c-4.1-2.3-9.3-0.7-11.4 3.6l-76.1 161.8c-1.2 2.6-0.9 5.3 0.3 7.4 1.6 2.9 5 4.8 8.7 4l48.9-10.3c3.6-0.8 7.1 1 8.7 4 0.6 1.1 1 2.4 1.1 3.9 1.9 93.6-46.2 185.2-133.4 234.6-10.8 6.1-21.9 11.4-33.2 15.9-3.1 1.2-5.2 4.3-5.1 7.6l1.6 130.6c0.1 1.3 0.5 2.6 1.1 3.8z" fill="#27323A" p-id="4363"></path></svg>