<?xml version="1.0" standalone="no"?><!DOCTYPE svg PUBLIC "-//W3C//DTD SVG 1.1//EN" "http://www.w3.org/Graphics/SVG/1.1/DTD/svg11.dtd"><svg t="1758618267975" class="icon" viewBox="0 0 1310 1024" version="1.1" xmlns="http://www.w3.org/2000/svg" p-id="3640" xmlns:xlink="http://www.w3.org/1999/xlink" width="61.40625" height="48"><path d="M668.8768 4.75136l578.19136 202.3424A40.96 40.96 0 0 1 1233.55136 286.72H77.16864a40.96 40.96 0 0 1-13.5168-79.62624L641.8432 4.75136a40.96 40.96 0 0 1 27.0336 0z" fill="#377FF0" p-id="3641"></path><path d="M1105.92 286.72v573.44a163.84 163.84 0 0 1-163.84 163.84H368.64a163.84 163.84 0 0 1-163.84-163.84V286.72h901.12zM655.36 368.64a40.96 40.96 0 0 0-40.96 40.96v6.9632a143.44192 143.44192 0 0 0 0 272.7936v117.06368a61.8496 61.8496 0 0 1-13.9264-15.07328l-2.8672-3.85024a40.96 40.96 0 0 0-65.65888 48.7424A143.36 143.36 0 0 0 614.4 896.2048V901.12a40.96 40.96 0 0 0 81.92 0v-7.00416a143.44192 143.44192 0 0 0 0-272.71168l0.04096-117.06368c5.36576 4.13696 10.07616 9.216 13.9264 15.03232l2.82624 3.85024a40.96 40.96 0 0 0 65.65888-48.7424 143.36 143.36 0 0 0-82.41152-59.88352L696.32 409.6a40.96 40.96 0 0 0-40.96-40.96z m41.00096 346.7264a61.2352 61.2352 0 0 1 0 84.7872zM614.4 510.52544v84.86912a61.2352 61.2352 0 0 1-17.03936-42.43456c0-16.46592 6.47168-31.41632 17.03936-42.43456z" fill="#205FEC" p-id="3642"></path></svg>