<?xml version="1.0" standalone="no"?><!DOCTYPE svg PUBLIC "-//W3C//DTD SVG 1.1//EN" "http://www.w3.org/Graphics/SVG/1.1/DTD/svg11.dtd"><svg t="1757350641837" class="icon" viewBox="0 0 1024 1024" version="1.1" xmlns="http://www.w3.org/2000/svg" p-id="4155" xmlns:xlink="http://www.w3.org/1999/xlink" width="48" height="48"><path d="M729.377 27.337L29.371 727.444c-29.6 29.602-29.6 77.953 0.102 107.653l161.431 161.536c29.602 29.6 78.104 29.7 107.653 0.101l700.11-700.11c29.602-29.65 29.602-78.104 0-107.704L837.185 27.337c-29.753-29.703-78.156-29.55-107.808 0zM206.312 781.222l-38.47 38.47-96.099-96.15 38.47-38.47 96.1 96.15z m153.877 0l-38.47 38.47-173.087-173.09 38.469-38.518 173.088 173.138z m0-153.881l-38.47 38.47-96.198-96.098 38.52-38.519 96.148 96.147z m76.941-76.937l-38.47 38.469-96.099-96.099 38.47-38.52 96.1 96.15z m153.828 0l-38.47 38.469-173.04-173.038 38.472-38.471 173.038 173.04z m0-153.829l-38.47 38.468-96.097-96.097 38.47-38.47 96.097 96.1z m76.94-76.891l-38.47 38.47-96.15-96.15 38.47-38.468 96.15 96.148z m153.88 0l-38.522 38.47-173.039-173.086 38.47-38.52L821.78 319.684z m-0.052-153.826l-38.47 38.47-96.097-96.2 38.468-38.418 96.099 96.148z" fill="#a4579d" p-id="4156"></path></svg>