<?xml version="1.0" standalone="no"?><!DOCTYPE svg PUBLIC "-//W3C//DTD SVG 1.1//EN" "http://www.w3.org/Graphics/SVG/1.1/DTD/svg11.dtd"><svg t="1754039861777" class="icon" viewBox="0 0 1024 1024" version="1.1" xmlns="http://www.w3.org/2000/svg" p-id="2527" xmlns:xlink="http://www.w3.org/1999/xlink" width="48" height="48"><path d="M409.5 203.8h176a40 40 0 0 0 40-40v-96a4 4 0 0 0-4-4h-248a4 4 0 0 0-4 4v96a40 40 0 0 0 40 40z m135.5-102a32 32 0 1 1-32 32 32 32 0 0 1 32-32zM511 608a64 64 0 1 0 64 64 64.1 64.1 0 0 0-64-64z m329-330.4L681.8 64.3h-0.4c0.1 1.2 0.1 2.4 0.1 3.5v96a96 96 0 0 1-96 96h-176a96 96 0 0 1-96-96v-96c0-1.2 0-2.4 0.1-3.6h-97.7a40 40 0 0 0-39.9 40V920a40 40 0 0 0 40 40h592a40 40 0 0 0 40-40V301.6a39.8 39.8 0 0 0-8-24zM511 800a128 128 0 1 1 128-128 128 128 0 0 1-128 128z" p-id="2528"></path></svg>