<?xml version="1.0" standalone="no"?><!DOCTYPE svg PUBLIC "-//W3C//DTD SVG 1.1//EN" "http://www.w3.org/Graphics/SVG/1.1/DTD/svg11.dtd"><svg t="1753964137901" class="icon" viewBox="0 0 1024 1024" version="1.1" xmlns="http://www.w3.org/2000/svg" p-id="5820" xmlns:xlink="http://www.w3.org/1999/xlink" width="48" height="48"><path d="M403.9693 403.9693m-354.818637 0a354.818637 354.818637 0 1 0 709.637274 0 354.818637 354.818637 0 1 0-709.637274 0Z" fill="#ABD6FF" p-id="5821"></path><path d="M403.9693 807.9386C181.218495 807.9386 0 626.720105 0 403.9693S181.218495 0 403.9693 0s403.9693 181.218495 403.9693 403.9693-181.218495 403.9693-403.9693 403.9693z m0-709.637274C235.421846 98.301326 98.301326 235.421846 98.301326 403.9693s137.12052 305.667974 305.667974 305.667974 305.667974-137.12052 305.667974-305.667974S572.516754 98.301326 403.9693 98.301326z" fill="#666666" p-id="5822"></path><path d="M698.308046 611.409674l325.687039 325.687039-86.888542 86.888542-325.687039-325.687039z" fill="#666666" p-id="5823"></path></svg>