<?xml version="1.0" standalone="no"?><!DOCTYPE svg PUBLIC "-//W3C//DTD SVG 1.1//EN" "http://www.w3.org/Graphics/SVG/1.1/DTD/svg11.dtd"><svg t="1754039698856" class="icon" viewBox="0 0 1024 1024" version="1.1" xmlns="http://www.w3.org/2000/svg" p-id="3532" xmlns:xlink="http://www.w3.org/1999/xlink" width="48" height="48"><path d="M748.6976 856.2176H487.2192c-56.3712 0-102.0416-45.6704-102.0416-102.0416V492.6464c0-56.3712 45.6704-102.0416 102.0416-102.0416h261.4784c56.3712 0 102.0416 45.6704 102.0416 102.0416v261.4784c0.0512 56.3712-45.6704 102.0928-102.0416 102.0928z" fill="#FFE6D8" p-id="3533"></path><path d="M748.6976 856.2176H487.2192c-56.3712 0-102.0416-45.6704-102.0416-102.0416V492.6464c0-56.3712 45.6704-102.0416 102.0416-102.0416h261.4784c56.3712 0 102.0416 45.6704 102.0416 102.0416v261.4784c0.0512 56.3712-45.6704 102.0928-102.0416 102.0928z" fill="#FFE6D8" p-id="3534"></path><path d="M850.7904 495.36c0-12.3392-2.2528-24.1664-6.1952-35.1744a105.728 105.728 0 0 0-24.6784-2.9184h-256.1024c-57.856 0-104.7552 46.8992-104.7552 104.7552v256.1024c0 12.288 2.0992 24.064 5.9904 35.0208 7.9872 1.9456 16.2816 3.072 24.832 3.072h43.0592v-227.5328c0-57.856 46.8992-104.7552 104.7552-104.7552h213.0432v-28.5696z" fill="#FE966C" p-id="3535"></path><path d="M850.7904 523.9296h-213.0432c-57.856 0-104.7552 46.8992-104.7552 104.7552v227.5328h73.9328v-160.8704c0-57.856 46.8992-104.7552 104.7552-104.7552h139.1104v-66.6624z" fill="#FFB392" p-id="3536"></path><path d="M711.68 590.592c-57.856 0-104.7552 46.8992-104.7552 104.7552v160.8704h73.9328v-94.1568c0-57.856 46.8992-104.7552 104.7552-104.7552h65.1776v-66.6624H711.68z" fill="#FED9C4" p-id="3537"></path><path d="M459.0592 818.1248v-256.1024c0-57.856 46.8992-104.7552 104.7552-104.7552h256.1024c8.5504 0 16.7936 1.1264 24.7296 3.072-14.4384-40.6016-53.0944-69.7344-98.6112-69.7344H489.9328c-57.856 0-104.7552 46.8992-104.7552 104.7552v256.1024c0 49.3056 34.1504 90.5728 80.0256 101.6832-3.8912-10.9568-6.144-22.7328-6.144-35.0208z" fill="#FF7B4C" p-id="3538"></path><path d="M872.9088 473.3952c-22.6304 0-40.96 18.3296-40.96 40.96v203.6224c0 65.8432-53.5552 119.3984-119.3984 119.3984H305.3056c-65.8432 0-119.3984-53.5552-119.3984-119.3984V310.7328c0-65.8432 53.5552-119.3984 119.3984-119.3984h216.4224c22.6304 0 40.96-18.3296 40.96-40.96s-18.3296-40.96-40.96-40.96H305.3056c-111.0016 0-201.3184 90.3168-201.3184 201.3184v407.2448c0 111.0016 90.3168 201.3184 201.3184 201.3184h407.2448c111.0016 0 201.3184-90.3168 201.3184-201.3184v-203.6224c0-22.5792-18.3296-40.96-40.96-40.96z" fill="#373E51" p-id="3539"></path><path d="M916.6848 236.1856l-123.4432-129.4848a40.93952 40.93952 0 0 0-57.9072-1.3824 40.93952 40.93952 0 0 0-1.3824 57.9072l50.8416 53.3504c-84.9408 0.9728-204.6464 17.9712-298.9056 92.3648-86.1696 67.9424-133.7856 169.5744-141.568 301.9776-1.3312 22.5792 15.9232 41.984 38.5024 43.3152 0.8192 0.0512 1.6384 0.0512 2.4576 0.0512 21.504 0 39.5776-16.7936 40.8576-38.5536 6.3488-107.8784 43.4176-189.3888 110.2336-242.2272 79.6672-63.0784 187.136-75.1616 259.9424-74.8032l-61.9008 63.232c-15.8208 16.1792-15.5648 42.0864 0.6144 57.9072a40.9344 40.9344 0 0 0 28.6208 11.6736c10.6496 0 21.248-4.096 29.2864-12.288l123.4432-126.1568c15.36-15.7184 15.5136-40.9088 0.3072-56.8832z" fill="#373E51" p-id="3540"></path></svg>