<?xml version="1.0" standalone="no"?><!DOCTYPE svg PUBLIC "-//W3C//DTD SVG 1.1//EN" "http://www.w3.org/Graphics/SVG/1.1/DTD/svg11.dtd"><svg t="1753964092925" class="icon" viewBox="0 0 1024 1024" version="1.1" xmlns="http://www.w3.org/2000/svg" p-id="3273" xmlns:xlink="http://www.w3.org/1999/xlink" width="48" height="48"><path d="M671.744 491.52v-14.336c0-139.264-137.216-251.904-307.2-251.904S59.392 337.92 59.392 477.184c0 65.536 30.72 124.928 79.872 169.984 16.384 14.336-45.056 92.16-24.576 102.4 20.48 12.288 124.928-43.008 147.456-34.816 32.768 10.24 65.536 14.336 102.4 14.336 20.48 0 40.96-2.048 59.392-4.096 16.384 100.352 122.88 180.224 253.952 180.224 30.72 0 59.392-4.096 86.016-12.288 20.48-6.144 106.496 38.912 122.88 28.672s-34.816-71.68-20.48-83.968c40.96-36.864 67.584-86.016 67.584-139.264C933.888 583.68 819.2 491.52 677.888 491.52h-6.144z" fill="" p-id="3274"></path><path d="M880.64 962.56c-16.384 0-36.864-6.144-67.584-18.432-24.576-8.192-36.864-12.288-40.96-12.288-28.672 8.192-61.44 12.288-92.16 12.288-133.12 0-247.808-71.68-284.672-176.128-47.104 4.096-94.208-2.048-139.264-14.336-4.096 0-16.384 4.096-51.2 16.384-59.392 20.48-83.968 28.672-110.592 14.336-14.336-8.192-34.816-26.624-22.528-67.584 4.096-10.24 6.144-18.432 16.384-38.912l8.192-16.384c-49.152-51.2-77.824-116.736-77.824-184.32C18.432 315.392 174.08 184.32 364.544 184.32c182.272 0 331.776 116.736 346.112 268.288 149.504 14.336 264.192 118.784 264.192 245.76 0 55.296-22.528 110.592-65.536 153.6 2.048 2.048 2.048 4.096 4.096 8.192 8.192 16.384 10.24 22.528 14.336 32.768 12.288 38.912-8.192 57.344-22.528 63.488-6.144 4.096-14.336 6.144-24.576 6.144z m-110.592-71.68c6.144 0 18.432 2.048 55.296 16.384 49.152 16.384 57.344 18.432 63.488 14.336 2.048-2.048 6.144-4.096 2.048-16.384-2.048-6.144-4.096-12.288-12.288-26.624-6.144-12.288-8.192-18.432-10.24-24.576l-4.096-14.336 10.24-8.192c38.912-36.864 61.44-83.968 61.44-135.168 0-110.592-106.496-200.704-243.712-204.8h-18.432v-18.432c-6.144-137.216-143.36-247.808-309.248-247.808-167.936 0-305.152 112.64-305.152 251.904 0 61.44 26.624 120.832 75.776 165.888l8.192 8.192-2.048 12.288c0 2.048 0 2.048-2.048 4.096-2.048 8.192-6.144 16.384-12.288 30.72-8.192 18.432-12.288 24.576-14.336 32.768-4.096 16.384 0 18.432 2.048 18.432 8.192 4.096 22.528 2.048 73.728-16.384 61.44-22.528 67.584-20.48 73.728-18.432 45.056 12.288 94.208 16.384 143.36 12.288l18.432-2.048 4.096 16.384c24.576 94.208 131.072 161.792 249.856 161.792 28.672 0 57.344-4.096 86.016-12.288h6.144z" fill="#16380A" p-id="3275"></path><path d="M364.544 729.088c169.984 0 309.248-112.64 309.248-251.904S534.528 225.28 364.544 225.28 59.392 337.92 59.392 477.184c0 65.536 30.72 124.928 79.872 169.984 16.384 14.336-45.056 92.16-24.576 102.4 20.48 12.288 124.928-43.008 147.456-34.816 32.768 8.192 67.584 14.336 102.4 14.336z" fill="#99E666" p-id="3276"></path><path d="M264.192 450.56m-40.96 0a40.96 40.96 0 1 0 81.92 0 40.96 40.96 0 1 0-81.92 0Z" fill="#0C631F" p-id="3277"></path><path d="M468.992 450.56m-40.96 0a40.96 40.96 0 1 0 81.92 0 40.96 40.96 0 1 0-81.92 0Z" fill="#0C631F" p-id="3278"></path><path d="M677.888 903.168c-141.312 0-256-92.16-256-206.848s114.688-204.8 256-204.8 262.144 90.112 262.144 204.8c0 53.248-24.576 104.448-67.584 141.312-14.336 12.288 36.864 73.728 20.48 83.968-24.576 14.336-110.592-34.816-129.024-28.672-26.624 6.144-55.296 10.24-86.016 10.24z" fill="#E7EAEB" p-id="3279"></path><path d="M731.136 673.792a34.816 34.816 0 1 0 69.632 0 34.816 34.816 0 1 0-69.632 0Z" fill="#6E7373" p-id="3280"></path><path d="M563.2 673.792a34.816 34.816 0 1 0 69.632 0 34.816 34.816 0 1 0-69.632 0Z" fill="#6E7373" p-id="3281"></path><path d="M891.06432 267.22304h57.344l-96.256-145.408-96.256 145.408h51.2v51.2c0 59.392-43.008 139.264-153.6 143.36 223.232 47.104 241.664-63.488 241.664-143.36 0-14.336 0-30.72-4.096-51.2z" fill="#419EFF" p-id="3282"></path><path d="M739.51232 510.93504c-28.672 0-59.392-2.048-92.16-8.192-10.24-2.048-18.432-10.24-16.384-22.528l2.048-40.96c0-10.24 10.24-18.432 20.48-18.432 77.824-2.048 114.688-53.248 114.688-102.4v-18.432l-47.104 6.144c-8.192 2.048-16.384-2.048-20.48-10.24-4.096-6.144-4.096-16.384 0-22.528l133.12-200.704c8.192-12.288 26.624-12.288 34.816 0l133.12 200.704c4.096 6.144 4.096 14.336 0 20.48s-10.24 12.288-16.384 12.288h-49.152v12.288c0 51.2-6.144 104.448-49.152 145.408-32.768 30.72-81.92 47.104-147.456 47.104z m-67.584-45.056c92.16 12.288 151.552 2.048 186.368-30.72 24.576-26.624 36.864-57.344 36.864-116.736 0-8.192 0-18.432-2.048-30.72 0-6.144-2.048-22.528-2.048-22.528h55.296l-94.208-143.36-94.208 143.36h49.152v53.248c0 75.776-55.296 133.12-135.168 141.312v6.144z" fill="#1C2754" p-id="3283"></path></svg>