<?xml version="1.0" standalone="no"?><!DOCTYPE svg PUBLIC "-//W3C//DTD SVG 1.1//EN" "http://www.w3.org/Graphics/SVG/1.1/DTD/svg11.dtd"><svg t="1754043297110" class="icon" viewBox="0 0 1024 1024" version="1.1" xmlns="http://www.w3.org/2000/svg" p-id="2607" xmlns:xlink="http://www.w3.org/1999/xlink" width="48" height="48"><path d="M 784.1 737.5 h -0.5 c -9.8 -0.2 -19.1 1.1 -27.6 3.4 c -3.4 1.1 -7 1.1 -10.9 0 c -3.3 -1 -6.4 -2.9 -9 -5.4 L 369.8 369.1 c -2.8 -2.9 -4.9 -6.5 -5.6 -10.4 c -0.8 -4.3 -0.6 -8.2 1.3 -12.1 c 7.4 -18.2 11.3 -38.1 11 -59.6 l 0.3 -0.2 c -0.3 -34.3 -10.1 -64.3 -29.4 -90.1 c -1.9 -2.2 -3.4 -4.3 -5.2 -6.7 c -3.3 -3.8 -6.7 -7.4 -10 -10.8 c -30 -29.9 -66.1 -44.8 -108.2 -45.1 c -8.5 0.3 -16.2 0.8 -23.6 2 c -0.3 0 -0.6 0 -0.9 0.3 c -2.5 0.2 -5.1 0.8 -7.7 1.6 l 64 22.6 c 3.4 1.4 6.5 3.6 9.1 6.5 c 2.3 3.4 3.6 6.7 4.1 10.4 c 0.5 3.8 1 7.4 1.2 11.3 c 0 0.5 0 1 0.3 1.2 c 0.2 5.2 0.5 10.4 0.5 15.8 l 0.2 0.2 v 7.8 L 190 329.5 L 75.3 288.1 l 47.1 76.9 c 1.3 1.2 2.6 2.8 4.2 4.4 c 29.7 29.6 65.5 44.3 107.6 44.6 c 21.3 0.2 41.2 -3.6 59.5 -11.1 c 3.9 -1.8 8 -2.4 12.4 -1.5 c 3.9 0.7 7.5 2.7 10.3 5.6 l 366.3 366.3 c 2.6 2.6 4.4 5.7 5.2 9.3 c 1 3.8 1 7.5 0 10.8 c -2.3 8.5 -3.3 17.8 -3.1 27.4 v 0.5 c 0 29.9 10.6 55.4 31.9 76.9 c 21.5 21.3 47.3 32.2 77.4 32.5 h 2.1 l 0.3 -0.3 c 29.4 -0.5 54.4 -11.1 75.1 -31.7 c 7.5 -7.5 13.6 -15.3 18.5 -23.8 c 1.8 -8.2 2.9 -16.7 3.1 -25.7 c -0.2 -0.5 -0.2 -1.1 -0.2 -1.4 c 0 -0.2 0 -0.7 0.2 -1.2 c 0 -29.9 -10.8 -55.8 -32.2 -77.2 c -21.4 -21.2 -47 -31.9 -76.9 -31.9 Z m 66.3 28.2 c 15.2 15.2 22.7 34 22.5 56 l 0.2 0.2 c -0.2 5.7 -0.8 11.1 -1.8 16.3 l -91.6 35.1 l -34.3 -36.1 c 16.7 -63 33 -94.5 48.2 -94.7 c 22 -0.3 41 7.5 56.8 23.2 Z" fill="#f4c959" p-id="2608"></path><path d="M 806.7 799.2 c -10.6 0.2 -19.6 4.1 -27.1 11.6 c -7.4 7.5 -11 16.2 -11 26.5 l -0.3 0.3 c 0.3 10.6 4.2 19.6 11.6 27.1 c 7.2 7.2 16 10.8 26.3 10.8 l 0.3 -0.2 c 10.3 0 19.1 -3.6 26.6 -11.1 s 11.3 -16.5 11.5 -27.1 l 0.4 -0.3 c -0.4 -10.5 -3.9 -19.3 -10.9 -26.3 c -7.5 -7.5 -16.5 -11.3 -26.9 -11.3 h -0.5 Z" fill="#fcd769" p-id="2609"></path><path d="M 247.8 187.9 c -0.3 3.3 -0.3 6.6 -0.3 10 l 0.3 0.2 c 0.2 42.6 -14.7 78.8 -44.4 108.4 l -0.2 0.2 L 88.6 265 c -4.6 -1.5 -9.2 -1.5 -14.2 0.2 c -4.6 1.6 -8.2 4.7 -10.5 9 c -2.3 4.2 -3.4 8.8 -2.6 14 c 5.9 35.8 21.6 67.6 47.2 95.7 c 2.1 2.1 4.4 4.4 6.9 7 c 37.7 37.6 83.4 56.5 136.8 56.7 c 22.4 0 43.3 -3.1 62.7 -9.6 l 348.7 348.8 c -1.8 8.5 -2.3 17.5 -1.8 27.1 l -0.2 -0.2 c 0 41.2 14.6 76.5 44 106 c 29.7 29.6 65 44.3 106.6 44.6 c 1 0 1.8 0 2.3 -0.3 l 0.2 0.3 c 40.5 -0.5 75.2 -15.2 104 -44.1 c 28.7 -28.7 43.4 -63 44.2 -103 c 0.2 -1.5 0.2 -2.8 0 -4 c -0.3 -41.6 -15 -77 -44.4 -106.3 c -29.4 -29.5 -64.8 -44.2 -106.3 -44.4 l 0.5 0.5 c -9.6 -0.3 -18.6 0.2 -27.1 1.8 L 436.9 316 c 6.4 -19.3 9.5 -40.2 9.5 -62.6 c -0.2 -53.4 -19.1 -99.1 -56.7 -136.8 c -38 -37.9 -83.6 -56.7 -137 -57 c -11.1 0 -21.2 0.8 -30.7 2.4 h -0.6 c -38.1 5.9 -71.4 21.9 -99.7 48.2 c -3.6 3.3 -5.8 7.3 -6.5 12.2 c -0.8 4.8 0.2 9.2 3.1 13.3 c 2.3 4.2 5.9 7.3 10.6 9 l 118.9 43.2 Z m 35.1 -28.3 c -2.6 -2.9 -5.7 -5.2 -9 -6.5 l -94.7 -33.8 c 14.7 -8.2 30.9 -13.7 48.7 -16.2 c 0.3 -0.3 0.5 -0.3 0.8 -0.3 c 7.5 -1.2 15.2 -1.8 23.7 -2.1 c 42.1 0.3 78.2 15.3 108.1 45.2 c 29.7 29.7 44.4 65.6 44.7 107.6 l -0.3 0.2 c 0.3 21.4 -3.7 41.3 -11.1 59.6 c -1.8 3.9 -2.1 7.8 -1.3 12.2 c 0.7 3.8 2.9 7.5 5.7 10.2 L 764.5 702 c 2.6 2.7 5.6 4.5 9 5.5 c 3.9 1 7.5 1 10.9 0 c 8.5 -2.3 17.7 -3.7 27.6 -3.3 h 0.5 c 29.9 0 55.4 10.5 76.8 31.9 s 32.3 47.2 32.3 77.2 c -0.3 0.5 -0.3 1 -0.3 1.2 c 0 0.3 0 0.8 0.3 1.3 c -0.3 18.9 -5 36.1 -13.5 51.6 c -4.9 8.5 -11 16.3 -18.5 23.7 c -20.6 20.7 -45.7 31.2 -75.1 31.8 l -0.3 0.2 h -2 c -30.2 -0.2 -56 -11.1 -77.4 -32.5 c -21.4 -21.4 -32 -46.9 -32 -76.8 v -0.5 c -0.2 -9.6 0.8 -18.9 3.1 -27.4 c 1.1 -3.4 1.1 -7 0 -10.9 c -0.8 -3.6 -2.5 -6.7 -5.2 -9.2 L 334.5 399.5 c -2.9 -2.9 -6.5 -4.9 -10.3 -5.7 c -4.5 -0.7 -8.6 -0.2 -12.5 1.5 c -18.2 7.5 -38.1 11.4 -59.5 11.2 c -42.1 -0.3 -77.9 -15 -107.6 -44.7 c -1.6 -1.6 -2.8 -3.1 -4.2 -4.3 c -0.2 -0.6 -0.7 -1.1 -1 -1.4 l -0.2 -0.2 c -11.1 -11.6 -19.6 -24.3 -25.8 -37.7 l 87.7 31.5 c 3.3 1.3 6.9 1.8 10.8 1 c 3.4 -0.7 6.8 -2.1 9.5 -4.4 c 4 -3.3 7.5 -7 11.1 -10.6 c 15.8 -15.6 28.4 -33 37.7 -51.8 c 12.7 -25.8 18.8 -54.2 19.1 -85.3 l -0.3 -0.4 c 0 -9.5 -0.7 -19 -2 -28.3 c -0.5 -3.6 -1.8 -7 -4.1 -10.3 Z" fill="#543b2a" p-id="2610"></path><path d="M 755.7 758.3 c -15.2 15.2 -23 33.8 -23.2 55.7 c -0.3 21.9 7.7 40.8 23.5 56.5 c 15.2 15.3 33.7 22.9 55.7 22.7 c 21.9 -0.3 40.5 -8 55.7 -23.2 s 23.2 -33.8 23.7 -55.7 l -0.2 -0.3 c 0.2 -21.9 -7.3 -40.7 -22.4 -56 c -15.8 -15.7 -34.9 -23.5 -56.8 -23.2 c -22 0.2 -40.8 8.2 -56 23.5 Z m 56.3 17.5 h 0.5 c 10.2 0 19.3 3.9 26.8 11.4 c 6.9 7 10.6 15.7 10.8 26.3 l -0.2 0.3 c -0.3 10.5 -4.2 19.5 -11.7 27 s -16.2 11.1 -26.5 11.1 l -0.3 0.3 c -10.3 0 -19 -3.6 -26.3 -10.9 c -7.5 -7.4 -11.4 -16.5 -11.6 -27 l 0.2 -0.3 c 0 -10.3 3.7 -19.1 11.2 -26.6 s 16.5 -11.4 27.1 -11.6 Z" fill="#543b2a" p-id="2611"></path></svg>