<?xml version="1.0" standalone="no"?><!DOCTYPE svg PUBLIC "-//W3C//DTD SVG 1.1//EN" "http://www.w3.org/Graphics/SVG/1.1/DTD/svg11.dtd"><svg t="1754039727663" class="icon" viewBox="0 0 1024 1024" version="1.1" xmlns="http://www.w3.org/2000/svg" p-id="5005" xmlns:xlink="http://www.w3.org/1999/xlink" width="48" height="48"><path d="M768.7 201.5l-63.1 612.9c-2.5 24.6-23.1 43.1-47.7 43.1H366.1c-24.7 0-45.2-18.5-47.7-43.1l-63.1-612.9h513.4m13.3-12H242l64.5 626.1c3.1 30.6 28.9 53.9 59.7 53.9h291.7c30.8 0 56.5-23.3 59.7-53.9L782 189.5z" fill="#4C3800" p-id="5006"></path><path d="M788 164.5c6.6 0 12 5.4 12 12s-5.4 12-12 12H236c-6.6 0-12-5.4-12-12s5.4-12 12-12h552m0-12H236c-13.3 0-24 10.7-24 24s10.7 24 24 24h552c13.3 0 24-10.7 24-24s-10.7-24-24-24zM706.9 801.5l-1.3 12.9c-2.5 24.6-23.1 43.1-47.7 43.1H366.1c-24.7 0-45.2-18.5-47.7-43.1l-1.3-12.9h389.8m13.3-12z m0 0H303.8l2.7 26.1c3.1 30.6 28.9 53.9 59.7 53.9h291.7c30.8 0 56.5-23.3 59.7-53.9l2.6-26.1zM718.3 808.7l-0.8 6.9 0.8-6.9z" fill="#4C3800" p-id="5007"></path><path d="M763 193h-17l-29.4 29.4-29.3-29.4h-17l37.8 37.8-40 40-40.3-40.3 37.5-37.5h-17l-29.1 29.1-28.9-29.1h-17l37.5 37.5-40 40-40.2-40.2L568 193h-17l-28.9 28.9-28.8-28.9h-17l37.3 37.3-40.2 40.2-40-40L471 193h-17l-29.1 29.1-29-29.1h-17l37.5 37.5-40.3 40.3-40-40L374 193h-17l-29.4 29.4-29.3-29.4h-17l37.8 37.8-40.5 40.5-31.5-31.5 1.9 18.9 21 21-17.1 17.1 1.6 15.4 24-24 40 40-40.4 40.4-19.9-19.9 1.9 18.9 9.5 9.5-7.7 7.7 1.6 15.4 14.6-14.6 40 40-40.7 40.7-8-8 3.1 29.8 4.9-4.9 40.2 40.2L280 561l2.7 25.8 34.6 34.6-28.1 28.1 1.6 15.4 35-35 40.5 40.5-40.1 40.1-34.3-34.3 1.9 18.9 23.8 23.8-19.4 19.4 1.6 15.4 26.3-26.3 40.4 40.4-21.6 21.6h17l13.1-13.1 13.1 13.1h17l-21.6-21.6 40.1-40.1 40.7 40.7-21 21h17L473 777l12.5 12.5h17l-21-21 40.7-40.7 40.7 40.7-21 21h17l12.5-12.5 12.5 12.5h17l-21-21 40.7-40.7 40.1 40.1-21.7 21.6h17l13.1-13.1 13.1 13.1h17l-21.6-21.6 40.4-40.4 7.9 7.9 1.6-15.4-1-1 1.2-1.2 1.9-18.9-11.6 11.6-40.1-40.1 40.5-40.5 16.6 16.6 1.6-15.4-9.7-9.7 12-12 1.9-18.9-22.5 22.5-40.7-40.7L718 532l26.1 26.1 1.6-15.4-19.2-19.2 23.6-23.6L752 481l-34 34-40.7-40.7 40.2-40.2 35.7 35.7 1.6-15.4-28.8-28.7 35.4-35.4 2.5-23.8-38.2-38.2 40-40 5.6 5.6 3.2-31.4-8.9 8.9-40.5-40.5L763 193zM522.1 319.2L481.9 279l40.2-40.2 40.2 40.2-40.2 40.2z m97.5 0.2L579.3 279l40-40 40.3 40.3-40 40.1z m-195 0l-40-40 40.3-40.3 40 40-40.3 40.3z m292.5 0.5l-40.5-40.5 40-40 40.5 40.5-40 40z m-390 0l-40-40 40.5-40.5 40 40-40.5 40.5zM570.9 368l-40.3-40.3 40.2-40.2 40.3 40.3-40.2 40.2z m-97.6 0l-40.2-40.2 40.3-40.3 40.2 40.2-40.3 40.3z m195.3 0.4l-40.5-40.5 40-40 40.5 40.5-40 40z m-293 0l-40-40 40.5-40.5 40 40-40.5 40.5z m146.5 48.4l-40.3-40.3 40.3-40.3 40.3 40.3-40.3 40.3z m97.8 0.2l-40.5-40.5 40.2-40.2 40.5 40.5-40.2 40.2z m-195.6 0l-40.2-40.2 40.5-40.5 40.2 40.2-40.5 40.5z m293.2 0.2l-40.4-40.4 40-40 40.4 40.4-40 40z m-390.7 0l-40-40 40.4-40.4 40 40-40.4 40.4z m244.3 48.6l-40.5-40.5 40.3-40.3 40.5 40.5-40.3 40.3z m-98 0l-40.3-40.3 40.5-40.5 40.3 40.3-40.5 40.5z m195.7 0.1l-40.4-40.4 40.2-40.2 40.4 40.4-40.2 40.2z m-293.3 0l-40.2-40.2 40.4-40.4 40.2 40.2-40.4 40.4z m146.6 48.9l-40.5-40.5 40.5-40.5 40.5 40.5-40.5 40.5z m97.9-0.1l-40.4-40.4 40.3-40.3 40.4 40.4-40.3 40.3z m-195.7 0L384 474.4l40.4-40.4 40.3 40.3-40.4 40.4z m-98 0.4l-40.2-40.2 40.7-40.7 40.2 40.2-40.7 40.7zM571 563.7l-40.4-40.4 40.5-40.5 40.4 40.4-40.5 40.5z m-97.7 0l-40.5-40.5 40.4-40.4 40.5 40.5-40.4 40.4z m195.9 0.2l-40.7-40.7 40.3-40.3 40.7 40.7-40.3 40.3z m-294.1 0l-40.3-40.3 40.7-40.7 40.3 40.3-40.7 40.7z m245.1 49l-40.7-40.7 40.5-40.5 40.7 40.7-40.5 40.5z m-196.1 0l-40.5-40.5 40.7-40.7 40.5 40.5-40.7 40.7z m98-0.4l-40.4-40.4 40.4-40.4 40.4 40.4-40.4 40.4zM326 613l-40.3-40.3 40.7-40.7 40.3 40.3L326 613z m245.3 48.7L530.6 621l40.4-40.4 40.7 40.7-40.4 40.4z m-98.3 0l-40.4-40.4 40.7-40.7 40.4 40.4-40.7 40.7z m196.3 0.3l-40.7-40.7 40.5-40.5 40.7 40.7-40.5 40.5zM375 662l-40.5-40.5 40.7-40.7 40.5 40.5L375 662z m147.1 48.9l-40.7-40.7 40.7-40.7 40.7 40.7-40.7 40.7z m98.4 0l-40.7-40.7 40.4-40.4 40.7 40.7-40.4 40.4z m-196.7 0l-40.4-40.4 40.7-40.7 40.4 40.4-40.7 40.7zM571.3 760l-40.7-40.7 40.7-40.7 40.7 40.7-40.7 40.7z m-98.3 0l-40.7-40.7 40.7-40.7 40.7 40.7L473 760z m196.1-0.5L629 719.4l40.4-40.4 40.1 40.1-40.4 40.4z m-293.9 0l-40.4-40.4L375 679l40.4 40.4-40.2 40.1zM729.6 699z" fill="#4C3800" p-id="5008"></path></svg>