<?xml version="1.0" standalone="no"?><!DOCTYPE svg PUBLIC "-//W3C//DTD SVG 1.1//EN" "http://www.w3.org/Graphics/SVG/1.1/DTD/svg11.dtd"><svg t="1753970851007" class="icon" viewBox="0 0 1024 1024" version="1.1" xmlns="http://www.w3.org/2000/svg" p-id="2285" xmlns:xlink="http://www.w3.org/1999/xlink" width="128" height="128"><path d="M471.4 67.1V414L226 168.6c67.6-56.5 152.4-93.2 245.4-101.5z" fill="#FFD79A" p-id="2286"></path><path d="M798 168.6L552.6 414V67.1c92.8 8.1 177.8 45 245.4 101.5z" fill="#F3B024" p-id="2287"></path><path d="M956.9 471.4H610L855.4 226c56.5 67.6 93.2 152.4 101.5 245.4z" fill="#FFD79A" p-id="2288"></path><path d="M956.9 552.6c-8.1 93-45.1 177.8-101.5 245.4L610 552.6h346.9z" fill="#F3B024" p-id="2289"></path><path d="M797.8 855.3c-67.7 56.6-152.4 93.4-245.3 101.7V610l245.3 245.3z" fill="#FFD79A" p-id="2290"></path><path d="M471.4 610v346.9c-92.9-8.3-177.6-45.1-245.3-101.7L471.4 610z" fill="#F3B024" p-id="2291"></path><path d="M414 552.6L168.7 797.8C112.1 730.1 75.3 645.6 67 552.5h347z" fill="#FFD79A" p-id="2292"></path><path d="M414 471.4H67.1c8.3-92.9 45.1-177.6 101.7-245.3L414 471.4z" fill="#F3B024" p-id="2293"></path></svg>