<?xml version="1.0" standalone="no"?><!DOCTYPE svg PUBLIC "-//W3C//DTD SVG 1.1//EN" "http://www.w3.org/Graphics/SVG/1.1/DTD/svg11.dtd"><svg t="1754039721933" class="icon" viewBox="0 0 1024 1024" version="1.1" xmlns="http://www.w3.org/2000/svg" p-id="4681" xmlns:xlink="http://www.w3.org/1999/xlink" width="48" height="48"><path d="M544 304.1v115.1h-64V304.1C480 207 401 128 304 128s-176 79-176 176.1v115.1H64V304.1c0-64.1 25-124.4 70.3-169.8C179.6 89 239.9 64 304 64s124.4 25 169.7 70.3C519 179.7 544 240 544 304.1z" fill="#727272" p-id="4682"></path><path d="M960 507.7v360.2c0 50.8-40.5 92.1-90.2 92.1H346.2c-49.7 0-90.2-41.3-90.2-92.1V507.7c0-50.8 40.5-92.1 90.2-92.1h523.6c49.7 0.1 90.2 41.4 90.2 92.1z" fill="#E6C27C" p-id="4683"></path></svg>