<?xml version="1.0" standalone="no"?><!DOCTYPE svg PUBLIC "-//W3C//DTD SVG 1.1//EN" "http://www.w3.org/Graphics/SVG/1.1/DTD/svg11.dtd"><svg t="1753970841239" class="icon" viewBox="0 0 1504 1024" version="1.1" xmlns="http://www.w3.org/2000/svg" p-id="1968" xmlns:xlink="http://www.w3.org/1999/xlink" width="188" height="128"><path d="M848.96 558.24c-153.6 0-259.2-105.6-342.4-192-54.4-54.4-105.6-108.8-150.4-108.8-80 0-160 67.2-240 204.8l-108.8-64c105.6-176 224-265.6 348.8-265.6 96 0 169.6 73.6 240 144 73.6 73.6 150.4 153.6 252.8 153.6 92.8 0 262.4-73.6 540.8-422.4l99.2 80c-252.8 316.8-460.8 470.4-640 470.4z" fill="#3F83FC" p-id="1969"></path><path d="M848.96 1006.24c-153.6 0-259.2-105.6-342.4-192-54.4-54.4-105.6-108.8-150.4-108.8-80 0-160 67.2-240 204.8l-108.8-64c105.6-176 224-265.6 348.8-265.6 96 0 169.6 73.6 240 144 73.6 73.6 150.4 153.6 252.8 153.6 92.8 0 262.4-73.6 540.8-422.4l99.2 80c-252.8 316.8-460.8 470.4-640 470.4z" fill="#1DCE86" p-id="1970"></path></svg>